<mxfile host="Electron" modified="2024-04-01T18:24:23.989Z" agent="Mozilla/5.0 (Windows NT 10.0; Win64; x64) AppleWebKit/537.36 (KHTML, like Gecko) draw.io/24.1.0 Chrome/120.0.6099.109 Electron/28.1.0 Safari/537.36" etag="dIpmfLlas69J_w_NSZRn" version="24.1.0" type="device">
  <diagram name="Página-1" id="TJg3Zt1wI6SMbqNQ-9yi">
    <mxGraphModel dx="2247" dy="830" grid="1" gridSize="10" guides="1" tooltips="1" connect="1" arrows="1" fold="1" page="1" pageScale="1" pageWidth="827" pageHeight="1169" background="#CCE5FF" math="0" shadow="0">
      <root>
        <mxCell id="0" />
        <mxCell id="1" parent="0" />
        <mxCell id="ZJasjVeHh87FWfpovblg-1" value="&lt;font style=&quot;font-size: 16px;&quot; color=&quot;#000000&quot; face=&quot;Comic Sans MS&quot;&gt;20&lt;br&gt;Hacer un programa en el que se ingrese la edad y altura de 5 personas. Luego, calcular e informar:&lt;br&gt;La cantidad de personas mayores a 30 años que midan más de 1.8 metros.&lt;br&gt;El promedio de altura de las personas mayores a 30 años.&lt;br&gt;La cantidad de personas con altura entre 1.7 y 1.8 (ambos inclusive)&lt;br&gt;La cantidad de personas cuya edad sea de 20, 30 o 40 años.&lt;/font&gt;" style="text;whiteSpace=wrap;html=1;fontFamily=Architects Daughter;fontSource=https%3A%2F%2Ffonts.googleapis.com%2Fcss%3Ffamily%3DArchitects%2BDaughter;fontStyle=1" parent="1" vertex="1">
          <mxGeometry x="-50" y="10" width="720" height="170" as="geometry" />
        </mxCell>
        <mxCell id="-t0UyOi2Fv0MCj0DZwLF-178" value="" style="group;aspect=fixed;" vertex="1" connectable="0" parent="1">
          <mxGeometry x="-90" y="210" width="495" height="5130" as="geometry" />
        </mxCell>
        <mxCell id="ZJasjVeHh87FWfpovblg-2" value="" style="strokeWidth=2;html=1;shape=mxgraph.flowchart.start_2;whiteSpace=wrap;rounded=0;labelBackgroundColor=none;strokeColor=#000000;align=center;verticalAlign=middle;fontFamily=Helvetica;fontSize=12;fontColor=default;fillColor=#d5e8d4;aspect=fixed;container=0;" parent="-t0UyOi2Fv0MCj0DZwLF-178" vertex="1">
          <mxGeometry x="290" width="40" height="40" as="geometry" />
        </mxCell>
        <mxCell id="ZJasjVeHh87FWfpovblg-8" value="&lt;b&gt;&lt;font color=&quot;#000000&quot; style=&quot;font-size: 17px;&quot; face=&quot;Comic Sans MS&quot;&gt;I&lt;/font&gt;&lt;/b&gt;" style="text;strokeColor=none;align=center;fillColor=none;html=1;verticalAlign=middle;whiteSpace=wrap;rounded=0;fontFamily=Architects Daughter;fontSource=https%3A%2F%2Ffonts.googleapis.com%2Fcss%3Ffamily%3DArchitects%2BDaughter;aspect=fixed;container=0;" parent="-t0UyOi2Fv0MCj0DZwLF-178" vertex="1">
          <mxGeometry x="295" y="5" width="30" height="30" as="geometry" />
        </mxCell>
        <mxCell id="ZJasjVeHh87FWfpovblg-4" value="" style="shape=trapezoid;perimeter=trapezoidPerimeter;whiteSpace=wrap;html=1;fixedSize=1;rounded=0;labelBackgroundColor=none;strokeColor=#121211;strokeWidth=2;align=center;verticalAlign=middle;fontFamily=Helvetica;fontSize=12;fontColor=default;fillColor=#d5e8d4;direction=west;container=0;aspect=fixed;" parent="-t0UyOi2Fv0MCj0DZwLF-178" vertex="1">
          <mxGeometry x="220" y="80" width="180" height="50" as="geometry">
            <mxRectangle x="-1020" y="-650" width="50" height="40" as="alternateBounds" />
          </mxGeometry>
        </mxCell>
        <mxCell id="ZJasjVeHh87FWfpovblg-7" value="&lt;font face=&quot;Comic Sans MS&quot; color=&quot;#000000&quot;&gt;&lt;span style=&quot;font-size: 13px;&quot;&gt;&lt;b&gt;e1, e2, e3, e4, e5,&lt;/b&gt;&lt;/span&gt;&lt;/font&gt;&lt;div&gt;&lt;font face=&quot;Comic Sans MS&quot; color=&quot;#000000&quot;&gt;&lt;span style=&quot;font-size: 13px;&quot;&gt;&lt;b&gt;al1, al2, al3, al4, al5&lt;/b&gt;&lt;/span&gt;&lt;/font&gt;&lt;/div&gt;" style="text;strokeColor=none;align=center;fillColor=none;html=1;verticalAlign=middle;whiteSpace=wrap;rounded=0;fontFamily=Architects Daughter;fontSource=https%3A%2F%2Ffonts.googleapis.com%2Fcss%3Ffamily%3DArchitects%2BDaughter;aspect=fixed;container=0;" parent="-t0UyOi2Fv0MCj0DZwLF-178" vertex="1">
          <mxGeometry x="230" y="80" width="160" height="50" as="geometry" />
        </mxCell>
        <mxCell id="-t0UyOi2Fv0MCj0DZwLF-4" value="" style="rounded=0;whiteSpace=wrap;html=1;labelBackgroundColor=none;strokeColor=#0f100e;strokeWidth=2;align=center;verticalAlign=middle;fontFamily=Helvetica;fontSize=12;fontColor=default;fillColor=#d5e8d4;aspect=fixed;container=0;" vertex="1" parent="-t0UyOi2Fv0MCj0DZwLF-178">
          <mxGeometry x="65" y="280" width="180" height="40" as="geometry" />
        </mxCell>
        <mxCell id="-t0UyOi2Fv0MCj0DZwLF-5" value="&lt;b&gt;&lt;font color=&quot;#000000&quot; face=&quot;Comic Sans MS&quot;&gt;personas_30_altuta180++&lt;/font&gt;&lt;/b&gt;" style="text;strokeColor=none;align=center;fillColor=none;html=1;verticalAlign=middle;whiteSpace=wrap;rounded=0;fontFamily=Architects Daughter;fontSource=https%3A%2F%2Ffonts.googleapis.com%2Fcss%3Ffamily%3DArchitects%2BDaughter;aspect=fixed;container=0;" vertex="1" parent="-t0UyOi2Fv0MCj0DZwLF-178">
          <mxGeometry x="75" y="285" width="160" height="30" as="geometry" />
        </mxCell>
        <mxCell id="ZJasjVeHh87FWfpovblg-6" value="" style="rhombus;whiteSpace=wrap;html=1;rounded=0;labelBackgroundColor=none;strokeColor=#0F140C;strokeWidth=2;align=center;verticalAlign=middle;fontFamily=Helvetica;fontSize=12;fontColor=default;fillColor=#d5e8d4;aspect=fixed;container=0;" parent="-t0UyOi2Fv0MCj0DZwLF-178" vertex="1">
          <mxGeometry x="245" y="160" width="130" height="140" as="geometry" />
        </mxCell>
        <mxCell id="-t0UyOi2Fv0MCj0DZwLF-2" value="&lt;b&gt;&lt;font color=&quot;#000000&quot; style=&quot;font-size: 12px;&quot; face=&quot;Comic Sans MS&quot;&gt;e1 &amp;gt;= 30&lt;/font&gt;&lt;/b&gt;&lt;div&gt;&lt;b&gt;&lt;font color=&quot;#000000&quot; style=&quot;font-size: 12px;&quot; face=&quot;Comic Sans MS&quot;&gt;&amp;amp;&amp;amp;&lt;/font&gt;&lt;/b&gt;&lt;/div&gt;&lt;div&gt;&lt;b&gt;&lt;font color=&quot;#000000&quot; style=&quot;font-size: 12px;&quot; face=&quot;Comic Sans MS&quot;&gt;al1 &amp;gt;= 1.8&lt;/font&gt;&lt;/b&gt;&lt;/div&gt;" style="text;strokeColor=none;align=center;fillColor=none;html=1;verticalAlign=middle;whiteSpace=wrap;rounded=0;fontFamily=Architects Daughter;fontSource=https%3A%2F%2Ffonts.googleapis.com%2Fcss%3Ffamily%3DArchitects%2BDaughter;aspect=fixed;container=0;" vertex="1" parent="-t0UyOi2Fv0MCj0DZwLF-178">
          <mxGeometry x="265" y="190" width="90" height="80" as="geometry" />
        </mxCell>
        <mxCell id="-t0UyOi2Fv0MCj0DZwLF-12" value="" style="rhombus;whiteSpace=wrap;html=1;rounded=0;labelBackgroundColor=none;strokeColor=#0F140C;strokeWidth=2;align=center;verticalAlign=middle;fontFamily=Helvetica;fontSize=12;fontColor=default;fillColor=#d5e8d4;aspect=fixed;container=0;" vertex="1" parent="-t0UyOi2Fv0MCj0DZwLF-178">
          <mxGeometry x="245" y="380" width="130" height="140" as="geometry" />
        </mxCell>
        <mxCell id="-t0UyOi2Fv0MCj0DZwLF-13" value="&lt;b&gt;&lt;font color=&quot;#000000&quot; style=&quot;font-size: 12px;&quot; face=&quot;Comic Sans MS&quot;&gt;e1 &amp;gt;= 30&lt;/font&gt;&lt;/b&gt;" style="text;strokeColor=none;align=center;fillColor=none;html=1;verticalAlign=middle;whiteSpace=wrap;rounded=0;fontFamily=Architects Daughter;fontSource=https://fonts.googleapis.com/css?family=Architects+Daughter;aspect=fixed;container=0;" vertex="1" parent="-t0UyOi2Fv0MCj0DZwLF-178">
          <mxGeometry x="265" y="410" width="90" height="80" as="geometry" />
        </mxCell>
        <mxCell id="-t0UyOi2Fv0MCj0DZwLF-3" value="" style="rounded=0;whiteSpace=wrap;html=1;labelBackgroundColor=none;strokeColor=#0f100e;strokeWidth=2;align=center;verticalAlign=middle;fontFamily=Helvetica;fontSize=12;fontColor=default;fillColor=#d5e8d4;aspect=fixed;container=0;" vertex="1" parent="-t0UyOi2Fv0MCj0DZwLF-178">
          <mxGeometry x="65" y="522.5" width="170" height="40" as="geometry" />
        </mxCell>
        <mxCell id="-t0UyOi2Fv0MCj0DZwLF-14" value="&lt;b&gt;&lt;font color=&quot;#000000&quot; face=&quot;Comic Sans MS&quot;&gt;altua_mayor_30 += al1&lt;/font&gt;&lt;/b&gt;&lt;div&gt;&lt;b&gt;&lt;font color=&quot;#000000&quot; face=&quot;Comic Sans MS&quot;&gt;mayor_30++&lt;/font&gt;&lt;/b&gt;&lt;/div&gt;" style="text;strokeColor=none;align=center;fillColor=none;html=1;verticalAlign=middle;whiteSpace=wrap;rounded=0;fontFamily=Architects Daughter;fontSource=https%3A%2F%2Ffonts.googleapis.com%2Fcss%3Ffamily%3DArchitects%2BDaughter;aspect=fixed;container=0;" vertex="1" parent="-t0UyOi2Fv0MCj0DZwLF-178">
          <mxGeometry x="65" y="520" width="170" height="45" as="geometry" />
        </mxCell>
        <mxCell id="-t0UyOi2Fv0MCj0DZwLF-17" value="" style="rhombus;whiteSpace=wrap;html=1;rounded=0;labelBackgroundColor=none;strokeColor=#0F140C;strokeWidth=2;align=center;verticalAlign=middle;fontFamily=Helvetica;fontSize=12;fontColor=default;fillColor=#d5e8d4;aspect=fixed;container=0;" vertex="1" parent="-t0UyOi2Fv0MCj0DZwLF-178">
          <mxGeometry x="245" y="620" width="130" height="140" as="geometry" />
        </mxCell>
        <mxCell id="-t0UyOi2Fv0MCj0DZwLF-18" value="&lt;font face=&quot;Comic Sans MS&quot; color=&quot;#000000&quot;&gt;&lt;b&gt;al1 &amp;gt;= 1.7&amp;nbsp;&lt;/b&gt;&lt;/font&gt;&lt;div&gt;&lt;font face=&quot;Comic Sans MS&quot; color=&quot;#000000&quot;&gt;&lt;b&gt;&amp;amp;&amp;amp;&lt;/b&gt;&lt;/font&gt;&lt;/div&gt;&lt;div&gt;&lt;font face=&quot;Comic Sans MS&quot; color=&quot;#000000&quot;&gt;&lt;b&gt;alt1 &amp;lt;= 1.8&lt;/b&gt;&lt;/font&gt;&lt;/div&gt;" style="text;strokeColor=none;align=center;fillColor=none;html=1;verticalAlign=middle;whiteSpace=wrap;rounded=0;fontFamily=Architects Daughter;fontSource=https://fonts.googleapis.com/css?family=Architects+Daughter;aspect=fixed;container=0;" vertex="1" parent="-t0UyOi2Fv0MCj0DZwLF-178">
          <mxGeometry x="265" y="650" width="90" height="80" as="geometry" />
        </mxCell>
        <mxCell id="-t0UyOi2Fv0MCj0DZwLF-24" value="" style="rhombus;whiteSpace=wrap;html=1;rounded=0;labelBackgroundColor=none;strokeColor=#0F140C;strokeWidth=2;align=center;verticalAlign=middle;fontFamily=Helvetica;fontSize=12;fontColor=default;fillColor=#d5e8d4;aspect=fixed;container=0;" vertex="1" parent="-t0UyOi2Fv0MCj0DZwLF-178">
          <mxGeometry x="245" y="870" width="130" height="140" as="geometry" />
        </mxCell>
        <mxCell id="-t0UyOi2Fv0MCj0DZwLF-25" value="&lt;font face=&quot;Comic Sans MS&quot; color=&quot;#000000&quot;&gt;&lt;b&gt;e1 == 20&amp;nbsp;&lt;/b&gt;&lt;/font&gt;&lt;div&gt;&lt;font face=&quot;Comic Sans MS&quot; color=&quot;#000000&quot;&gt;&lt;b&gt;||&lt;/b&gt;&lt;/font&gt;&lt;/div&gt;&lt;div&gt;&lt;font face=&quot;Comic Sans MS&quot; color=&quot;#000000&quot;&gt;&lt;b&gt;e1 == 30&lt;/b&gt;&lt;/font&gt;&lt;/div&gt;&lt;div&gt;&lt;font face=&quot;Comic Sans MS&quot; color=&quot;#000000&quot;&gt;&lt;b&gt;||&lt;/b&gt;&lt;/font&gt;&lt;/div&gt;&lt;div&gt;&lt;font face=&quot;Comic Sans MS&quot; color=&quot;#000000&quot;&gt;&lt;b&gt;e1 == 40&lt;/b&gt;&lt;/font&gt;&lt;/div&gt;" style="text;strokeColor=none;align=center;fillColor=none;html=1;verticalAlign=middle;whiteSpace=wrap;rounded=0;fontFamily=Architects Daughter;fontSource=https://fonts.googleapis.com/css?family=Architects+Daughter;aspect=fixed;container=0;" vertex="1" parent="-t0UyOi2Fv0MCj0DZwLF-178">
          <mxGeometry x="265" y="900" width="90" height="80" as="geometry" />
        </mxCell>
        <mxCell id="-t0UyOi2Fv0MCj0DZwLF-41" value="" style="rhombus;whiteSpace=wrap;html=1;rounded=0;labelBackgroundColor=none;strokeColor=#0F140C;strokeWidth=2;align=center;verticalAlign=middle;fontFamily=Helvetica;fontSize=12;fontColor=default;fillColor=#d5e8d4;aspect=fixed;container=0;" vertex="1" parent="-t0UyOi2Fv0MCj0DZwLF-178">
          <mxGeometry x="245" y="1360" width="130" height="140" as="geometry" />
        </mxCell>
        <mxCell id="-t0UyOi2Fv0MCj0DZwLF-42" value="&lt;b&gt;&lt;font color=&quot;#000000&quot; style=&quot;font-size: 12px;&quot; face=&quot;Comic Sans MS&quot;&gt;e2 &amp;gt;= 30&lt;/font&gt;&lt;/b&gt;" style="text;strokeColor=none;align=center;fillColor=none;html=1;verticalAlign=middle;whiteSpace=wrap;rounded=0;fontFamily=Architects Daughter;fontSource=https://fonts.googleapis.com/css?family=Architects+Daughter;aspect=fixed;container=0;" vertex="1" parent="-t0UyOi2Fv0MCj0DZwLF-178">
          <mxGeometry x="265" y="1390" width="90" height="80" as="geometry" />
        </mxCell>
        <mxCell id="ZJasjVeHh87FWfpovblg-3" value="" style="strokeWidth=2;html=1;shape=mxgraph.flowchart.start_2;whiteSpace=wrap;rounded=0;labelBackgroundColor=none;strokeColor=#000000;align=center;verticalAlign=middle;fontFamily=Helvetica;fontSize=12;fontColor=default;fillColor=#d5e8d4;aspect=fixed;" parent="-t0UyOi2Fv0MCj0DZwLF-178" vertex="1">
          <mxGeometry x="290" y="5090" width="40" height="40" as="geometry" />
        </mxCell>
        <mxCell id="ZJasjVeHh87FWfpovblg-9" value="&lt;b&gt;&lt;font color=&quot;#000000&quot; style=&quot;font-size: 17px;&quot; face=&quot;Comic Sans MS&quot;&gt;F&lt;/font&gt;&lt;/b&gt;" style="text;strokeColor=none;align=center;fillColor=none;html=1;verticalAlign=middle;whiteSpace=wrap;rounded=0;fontFamily=Architects Daughter;fontSource=https://fonts.googleapis.com/css?family=Architects+Daughter;aspect=fixed;" parent="-t0UyOi2Fv0MCj0DZwLF-178" vertex="1">
          <mxGeometry x="295" y="5095" width="30" height="30" as="geometry" />
        </mxCell>
        <mxCell id="-t0UyOi2Fv0MCj0DZwLF-176" style="edgeStyle=orthogonalEdgeStyle;rounded=0;sketch=1;hachureGap=4;jiggle=2;curveFitting=1;orthogonalLoop=1;jettySize=auto;html=1;exitX=0.5;exitY=1;exitDx=0;exitDy=0;fontFamily=Architects Daughter;fontSource=https%3A%2F%2Ffonts.googleapis.com%2Fcss%3Ffamily%3DArchitects%2BDaughter;" edge="1" parent="-t0UyOi2Fv0MCj0DZwLF-178" source="ZJasjVeHh87FWfpovblg-9" target="ZJasjVeHh87FWfpovblg-9">
          <mxGeometry relative="1" as="geometry" />
        </mxCell>
        <mxCell id="-t0UyOi2Fv0MCj0DZwLF-34" value="" style="rhombus;whiteSpace=wrap;html=1;rounded=0;labelBackgroundColor=none;strokeColor=#0F140C;strokeWidth=2;align=center;verticalAlign=middle;fontFamily=Helvetica;fontSize=12;fontColor=default;fillColor=#d5e8d4;aspect=fixed;container=0;" vertex="1" parent="-t0UyOi2Fv0MCj0DZwLF-178">
          <mxGeometry x="245" y="1130" width="130" height="140" as="geometry" />
        </mxCell>
        <mxCell id="-t0UyOi2Fv0MCj0DZwLF-35" value="&lt;b&gt;&lt;font color=&quot;#000000&quot; style=&quot;font-size: 12px;&quot; face=&quot;Comic Sans MS&quot;&gt;e2 &amp;gt;= 30&lt;/font&gt;&lt;/b&gt;&lt;div&gt;&lt;b&gt;&lt;font color=&quot;#000000&quot; style=&quot;font-size: 12px;&quot; face=&quot;Comic Sans MS&quot;&gt;&amp;amp;&amp;amp;&lt;/font&gt;&lt;/b&gt;&lt;/div&gt;&lt;div&gt;&lt;b&gt;&lt;font color=&quot;#000000&quot; style=&quot;font-size: 12px;&quot; face=&quot;Comic Sans MS&quot;&gt;al2 &amp;gt;= 1.8&lt;/font&gt;&lt;/b&gt;&lt;/div&gt;" style="text;strokeColor=none;align=center;fillColor=none;html=1;verticalAlign=middle;whiteSpace=wrap;rounded=0;fontFamily=Architects Daughter;fontSource=https://fonts.googleapis.com/css?family=Architects+Daughter;aspect=fixed;container=0;" vertex="1" parent="-t0UyOi2Fv0MCj0DZwLF-178">
          <mxGeometry x="265" y="1160" width="90" height="80" as="geometry" />
        </mxCell>
        <mxCell id="-t0UyOi2Fv0MCj0DZwLF-38" style="edgeStyle=orthogonalEdgeStyle;rounded=0;sketch=1;hachureGap=4;jiggle=2;curveFitting=1;orthogonalLoop=1;jettySize=auto;html=1;exitX=0.5;exitY=1;exitDx=0;exitDy=0;fontFamily=Architects Daughter;fontSource=https%3A%2F%2Ffonts.googleapis.com%2Fcss%3Ffamily%3DArchitects%2BDaughter;" edge="1" parent="-t0UyOi2Fv0MCj0DZwLF-178" source="-t0UyOi2Fv0MCj0DZwLF-35" target="-t0UyOi2Fv0MCj0DZwLF-35">
          <mxGeometry relative="1" as="geometry" />
        </mxCell>
        <mxCell id="-t0UyOi2Fv0MCj0DZwLF-43" value="" style="rounded=0;whiteSpace=wrap;html=1;labelBackgroundColor=none;strokeColor=#0f100e;strokeWidth=2;align=center;verticalAlign=middle;fontFamily=Helvetica;fontSize=12;fontColor=default;fillColor=#d5e8d4;container=0;aspect=fixed;" vertex="1" parent="-t0UyOi2Fv0MCj0DZwLF-178">
          <mxGeometry x="55" y="1512.5" width="170" height="40" as="geometry" />
        </mxCell>
        <mxCell id="-t0UyOi2Fv0MCj0DZwLF-44" value="&lt;b&gt;&lt;font color=&quot;#000000&quot; face=&quot;Comic Sans MS&quot;&gt;altua_mayor_30 += al2&lt;/font&gt;&lt;/b&gt;&lt;div&gt;&lt;b&gt;&lt;font color=&quot;#000000&quot; face=&quot;Comic Sans MS&quot;&gt;mayor_30++&lt;/font&gt;&lt;/b&gt;&lt;/div&gt;" style="text;strokeColor=none;align=center;fillColor=none;html=1;verticalAlign=middle;whiteSpace=wrap;rounded=0;fontFamily=Architects Daughter;fontSource=https://fonts.googleapis.com/css?family=Architects+Daughter;container=0;aspect=fixed;" vertex="1" parent="-t0UyOi2Fv0MCj0DZwLF-178">
          <mxGeometry x="55" y="1510" width="170" height="45" as="geometry" />
        </mxCell>
        <mxCell id="-t0UyOi2Fv0MCj0DZwLF-47" value="" style="rhombus;whiteSpace=wrap;html=1;rounded=0;labelBackgroundColor=none;strokeColor=#0F140C;strokeWidth=2;align=center;verticalAlign=middle;fontFamily=Helvetica;fontSize=12;fontColor=default;fillColor=#d5e8d4;aspect=fixed;container=0;" vertex="1" parent="-t0UyOi2Fv0MCj0DZwLF-178">
          <mxGeometry x="245" y="1600" width="130" height="140" as="geometry" />
        </mxCell>
        <mxCell id="-t0UyOi2Fv0MCj0DZwLF-48" value="&lt;font face=&quot;Comic Sans MS&quot; color=&quot;#000000&quot;&gt;&lt;b&gt;al2 &amp;gt;= 1.7&amp;nbsp;&lt;/b&gt;&lt;/font&gt;&lt;div&gt;&lt;font face=&quot;Comic Sans MS&quot; color=&quot;#000000&quot;&gt;&lt;b&gt;&amp;amp;&amp;amp;&lt;/b&gt;&lt;/font&gt;&lt;/div&gt;&lt;div&gt;&lt;font face=&quot;Comic Sans MS&quot; color=&quot;#000000&quot;&gt;&lt;b&gt;al2 &amp;lt;= 1.8&lt;/b&gt;&lt;/font&gt;&lt;/div&gt;" style="text;strokeColor=none;align=center;fillColor=none;html=1;verticalAlign=middle;whiteSpace=wrap;rounded=0;fontFamily=Architects Daughter;fontSource=https://fonts.googleapis.com/css?family=Architects+Daughter;aspect=fixed;container=0;" vertex="1" parent="-t0UyOi2Fv0MCj0DZwLF-178">
          <mxGeometry x="265" y="1630" width="90" height="80" as="geometry" />
        </mxCell>
        <mxCell id="-t0UyOi2Fv0MCj0DZwLF-54" value="" style="rhombus;whiteSpace=wrap;html=1;rounded=0;labelBackgroundColor=none;strokeColor=#0F140C;strokeWidth=2;align=center;verticalAlign=middle;fontFamily=Helvetica;fontSize=12;fontColor=default;fillColor=#d5e8d4;aspect=fixed;container=0;" vertex="1" parent="-t0UyOi2Fv0MCj0DZwLF-178">
          <mxGeometry x="245" y="1850" width="130" height="140" as="geometry" />
        </mxCell>
        <mxCell id="-t0UyOi2Fv0MCj0DZwLF-55" value="&lt;font face=&quot;Comic Sans MS&quot; color=&quot;#000000&quot;&gt;&lt;b&gt;e2 == 20&amp;nbsp;&lt;/b&gt;&lt;/font&gt;&lt;div&gt;&lt;font face=&quot;Comic Sans MS&quot; color=&quot;#000000&quot;&gt;&lt;b&gt;||&lt;/b&gt;&lt;/font&gt;&lt;/div&gt;&lt;div&gt;&lt;font face=&quot;Comic Sans MS&quot; color=&quot;#000000&quot;&gt;&lt;b&gt;e2 == 30&lt;/b&gt;&lt;/font&gt;&lt;/div&gt;&lt;div&gt;&lt;font face=&quot;Comic Sans MS&quot; color=&quot;#000000&quot;&gt;&lt;b&gt;||&lt;/b&gt;&lt;/font&gt;&lt;/div&gt;&lt;div&gt;&lt;font face=&quot;Comic Sans MS&quot; color=&quot;#000000&quot;&gt;&lt;b&gt;e2 == 40&lt;/b&gt;&lt;/font&gt;&lt;/div&gt;" style="text;strokeColor=none;align=center;fillColor=none;html=1;verticalAlign=middle;whiteSpace=wrap;rounded=0;fontFamily=Architects Daughter;fontSource=https://fonts.googleapis.com/css?family=Architects+Daughter;aspect=fixed;container=0;" vertex="1" parent="-t0UyOi2Fv0MCj0DZwLF-178">
          <mxGeometry x="265" y="1880" width="90" height="80" as="geometry" />
        </mxCell>
        <mxCell id="-t0UyOi2Fv0MCj0DZwLF-20" value="" style="rounded=0;whiteSpace=wrap;html=1;labelBackgroundColor=none;strokeColor=#0f100e;strokeWidth=2;align=center;verticalAlign=middle;fontFamily=Helvetica;fontSize=12;fontColor=default;fillColor=#d5e8d4;container=0;aspect=fixed;" vertex="1" parent="-t0UyOi2Fv0MCj0DZwLF-178">
          <mxGeometry x="20" y="770" width="225" height="40" as="geometry" />
        </mxCell>
        <mxCell id="-t0UyOi2Fv0MCj0DZwLF-21" value="&lt;b&gt;&lt;font color=&quot;#000000&quot; face=&quot;Comic Sans MS&quot;&gt;cantidad_personas_altura_17_18++&lt;/font&gt;&lt;/b&gt;" style="text;strokeColor=none;align=center;fillColor=none;html=1;verticalAlign=middle;whiteSpace=wrap;rounded=0;fontFamily=Architects Daughter;fontSource=https://fonts.googleapis.com/css?family=Architects+Daughter;aspect=fixed;container=0;" vertex="1" parent="-t0UyOi2Fv0MCj0DZwLF-178">
          <mxGeometry x="52.5" y="775" width="160" height="30" as="geometry" />
        </mxCell>
        <mxCell id="-t0UyOi2Fv0MCj0DZwLF-30" style="edgeStyle=orthogonalEdgeStyle;rounded=0;sketch=1;hachureGap=4;jiggle=2;curveFitting=1;orthogonalLoop=1;jettySize=auto;html=1;exitX=0.5;exitY=1;exitDx=0;exitDy=0;fontFamily=Architects Daughter;fontSource=https%3A%2F%2Ffonts.googleapis.com%2Fcss%3Ffamily%3DArchitects%2BDaughter;" edge="1" parent="-t0UyOi2Fv0MCj0DZwLF-178" source="-t0UyOi2Fv0MCj0DZwLF-21" target="-t0UyOi2Fv0MCj0DZwLF-21">
          <mxGeometry relative="1" as="geometry" />
        </mxCell>
        <mxCell id="-t0UyOi2Fv0MCj0DZwLF-27" value="" style="rounded=0;whiteSpace=wrap;html=1;labelBackgroundColor=none;strokeColor=#0f100e;strokeWidth=2;align=center;verticalAlign=middle;fontFamily=Helvetica;fontSize=12;fontColor=default;fillColor=#d5e8d4;container=0;aspect=fixed;" vertex="1" parent="-t0UyOi2Fv0MCj0DZwLF-178">
          <mxGeometry x="5" y="1020" width="245" height="40" as="geometry" />
        </mxCell>
        <mxCell id="-t0UyOi2Fv0MCj0DZwLF-28" value="&lt;b&gt;&lt;font color=&quot;#000000&quot; face=&quot;Comic Sans MS&quot;&gt;cantidad_personas_altura_40_30_40++&lt;/font&gt;&lt;/b&gt;" style="text;strokeColor=none;align=center;fillColor=none;html=1;verticalAlign=middle;whiteSpace=wrap;rounded=0;fontFamily=Architects Daughter;fontSource=https://fonts.googleapis.com/css?family=Architects+Daughter;container=0;aspect=fixed;" vertex="1" parent="-t0UyOi2Fv0MCj0DZwLF-178">
          <mxGeometry x="10" y="1025" width="240" height="30" as="geometry" />
        </mxCell>
        <mxCell id="-t0UyOi2Fv0MCj0DZwLF-39" value="" style="rounded=0;whiteSpace=wrap;html=1;labelBackgroundColor=none;strokeColor=#0f100e;strokeWidth=2;align=center;verticalAlign=middle;fontFamily=Helvetica;fontSize=12;fontColor=default;fillColor=#d5e8d4;aspect=fixed;container=0;" vertex="1" parent="-t0UyOi2Fv0MCj0DZwLF-178">
          <mxGeometry x="50" y="1270" width="180" height="40" as="geometry" />
        </mxCell>
        <mxCell id="-t0UyOi2Fv0MCj0DZwLF-40" value="&lt;b&gt;&lt;font color=&quot;#000000&quot; face=&quot;Comic Sans MS&quot;&gt;personas_30_altuta180++&lt;/font&gt;&lt;/b&gt;" style="text;strokeColor=none;align=center;fillColor=none;html=1;verticalAlign=middle;whiteSpace=wrap;rounded=0;fontFamily=Architects Daughter;fontSource=https://fonts.googleapis.com/css?family=Architects+Daughter;aspect=fixed;container=0;" vertex="1" parent="-t0UyOi2Fv0MCj0DZwLF-178">
          <mxGeometry x="60" y="1275" width="160" height="30" as="geometry" />
        </mxCell>
        <mxCell id="-t0UyOi2Fv0MCj0DZwLF-50" value="" style="rounded=0;whiteSpace=wrap;html=1;labelBackgroundColor=none;strokeColor=#0f100e;strokeWidth=2;align=center;verticalAlign=middle;fontFamily=Helvetica;fontSize=12;fontColor=default;fillColor=#d5e8d4;container=0;aspect=fixed;" vertex="1" parent="-t0UyOi2Fv0MCj0DZwLF-178">
          <mxGeometry x="15" y="1760" width="225" height="40" as="geometry" />
        </mxCell>
        <mxCell id="-t0UyOi2Fv0MCj0DZwLF-51" value="&lt;b&gt;&lt;font color=&quot;#000000&quot; face=&quot;Comic Sans MS&quot;&gt;cantidad_personas_altura_17_18++&lt;/font&gt;&lt;/b&gt;" style="text;strokeColor=none;align=center;fillColor=none;html=1;verticalAlign=middle;whiteSpace=wrap;rounded=0;fontFamily=Architects Daughter;fontSource=https://fonts.googleapis.com/css?family=Architects+Daughter;aspect=fixed;container=0;" vertex="1" parent="-t0UyOi2Fv0MCj0DZwLF-178">
          <mxGeometry x="47.5" y="1765" width="160" height="30" as="geometry" />
        </mxCell>
        <mxCell id="-t0UyOi2Fv0MCj0DZwLF-52" style="edgeStyle=orthogonalEdgeStyle;rounded=0;sketch=1;hachureGap=4;jiggle=2;curveFitting=1;orthogonalLoop=1;jettySize=auto;html=1;exitX=0.5;exitY=1;exitDx=0;exitDy=0;fontFamily=Architects Daughter;fontSource=https://fonts.googleapis.com/css?family=Architects+Daughter;" edge="1" parent="-t0UyOi2Fv0MCj0DZwLF-178" source="-t0UyOi2Fv0MCj0DZwLF-51" target="-t0UyOi2Fv0MCj0DZwLF-51">
          <mxGeometry relative="1" as="geometry" />
        </mxCell>
        <mxCell id="-t0UyOi2Fv0MCj0DZwLF-57" value="" style="rounded=0;whiteSpace=wrap;html=1;labelBackgroundColor=none;strokeColor=#0f100e;strokeWidth=2;align=center;verticalAlign=middle;fontFamily=Helvetica;fontSize=12;fontColor=default;fillColor=#d5e8d4;container=0;aspect=fixed;" vertex="1" parent="-t0UyOi2Fv0MCj0DZwLF-178">
          <mxGeometry y="1990" width="245" height="40" as="geometry" />
        </mxCell>
        <mxCell id="-t0UyOi2Fv0MCj0DZwLF-58" value="&lt;b&gt;&lt;font color=&quot;#000000&quot; face=&quot;Comic Sans MS&quot;&gt;cantidad_personas_altura_40_30_40++&lt;/font&gt;&lt;/b&gt;" style="text;strokeColor=none;align=center;fillColor=none;html=1;verticalAlign=middle;whiteSpace=wrap;rounded=0;fontFamily=Architects Daughter;fontSource=https://fonts.googleapis.com/css?family=Architects+Daughter;container=0;aspect=fixed;" vertex="1" parent="-t0UyOi2Fv0MCj0DZwLF-178">
          <mxGeometry x="4" y="1995" width="240" height="30" as="geometry" />
        </mxCell>
        <mxCell id="-t0UyOi2Fv0MCj0DZwLF-66" value="" style="rhombus;whiteSpace=wrap;html=1;rounded=0;labelBackgroundColor=none;strokeColor=#0F140C;strokeWidth=2;align=center;verticalAlign=middle;fontFamily=Helvetica;fontSize=12;fontColor=default;fillColor=#d5e8d4;aspect=fixed;container=0;" vertex="1" parent="-t0UyOi2Fv0MCj0DZwLF-178">
          <mxGeometry x="245" y="2090" width="130" height="140" as="geometry" />
        </mxCell>
        <mxCell id="-t0UyOi2Fv0MCj0DZwLF-67" value="&lt;b&gt;&lt;font color=&quot;#000000&quot; style=&quot;font-size: 12px;&quot; face=&quot;Comic Sans MS&quot;&gt;e3 &amp;gt;= 30&lt;/font&gt;&lt;/b&gt;&lt;div&gt;&lt;b&gt;&lt;font color=&quot;#000000&quot; style=&quot;font-size: 12px;&quot; face=&quot;Comic Sans MS&quot;&gt;&amp;amp;&amp;amp;&lt;/font&gt;&lt;/b&gt;&lt;/div&gt;&lt;div&gt;&lt;b&gt;&lt;font color=&quot;#000000&quot; style=&quot;font-size: 12px;&quot; face=&quot;Comic Sans MS&quot;&gt;al3 &amp;gt;= 1.8&lt;/font&gt;&lt;/b&gt;&lt;/div&gt;" style="text;strokeColor=none;align=center;fillColor=none;html=1;verticalAlign=middle;whiteSpace=wrap;rounded=0;fontFamily=Architects Daughter;fontSource=https://fonts.googleapis.com/css?family=Architects+Daughter;aspect=fixed;container=0;" vertex="1" parent="-t0UyOi2Fv0MCj0DZwLF-178">
          <mxGeometry x="265" y="2120" width="90" height="80" as="geometry" />
        </mxCell>
        <mxCell id="-t0UyOi2Fv0MCj0DZwLF-68" style="edgeStyle=orthogonalEdgeStyle;rounded=0;sketch=1;hachureGap=4;jiggle=2;curveFitting=1;orthogonalLoop=1;jettySize=auto;html=1;exitX=0.5;exitY=1;exitDx=0;exitDy=0;fontFamily=Architects Daughter;fontSource=https://fonts.googleapis.com/css?family=Architects+Daughter;" edge="1" parent="-t0UyOi2Fv0MCj0DZwLF-178" source="-t0UyOi2Fv0MCj0DZwLF-67" target="-t0UyOi2Fv0MCj0DZwLF-67">
          <mxGeometry relative="1" as="geometry" />
        </mxCell>
        <mxCell id="-t0UyOi2Fv0MCj0DZwLF-71" value="" style="rounded=0;whiteSpace=wrap;html=1;labelBackgroundColor=none;strokeColor=#0f100e;strokeWidth=2;align=center;verticalAlign=middle;fontFamily=Helvetica;fontSize=12;fontColor=default;fillColor=#d5e8d4;aspect=fixed;container=0;" vertex="1" parent="-t0UyOi2Fv0MCj0DZwLF-178">
          <mxGeometry x="45" y="2230" width="180" height="40" as="geometry" />
        </mxCell>
        <mxCell id="-t0UyOi2Fv0MCj0DZwLF-72" value="&lt;b&gt;&lt;font color=&quot;#000000&quot; face=&quot;Comic Sans MS&quot;&gt;personas_30_altuta180++&lt;/font&gt;&lt;/b&gt;" style="text;strokeColor=none;align=center;fillColor=none;html=1;verticalAlign=middle;whiteSpace=wrap;rounded=0;fontFamily=Architects Daughter;fontSource=https://fonts.googleapis.com/css?family=Architects+Daughter;aspect=fixed;container=0;" vertex="1" parent="-t0UyOi2Fv0MCj0DZwLF-178">
          <mxGeometry x="55" y="2235" width="160" height="30" as="geometry" />
        </mxCell>
        <mxCell id="-t0UyOi2Fv0MCj0DZwLF-74" value="" style="rhombus;whiteSpace=wrap;html=1;rounded=0;labelBackgroundColor=none;strokeColor=#0F140C;strokeWidth=2;align=center;verticalAlign=middle;fontFamily=Helvetica;fontSize=12;fontColor=default;fillColor=#d5e8d4;aspect=fixed;container=0;" vertex="1" parent="-t0UyOi2Fv0MCj0DZwLF-178">
          <mxGeometry x="245" y="2320" width="130" height="140" as="geometry" />
        </mxCell>
        <mxCell id="-t0UyOi2Fv0MCj0DZwLF-75" value="&lt;b&gt;&lt;font color=&quot;#000000&quot; style=&quot;font-size: 12px;&quot; face=&quot;Comic Sans MS&quot;&gt;e3 &amp;gt;= 30&lt;/font&gt;&lt;/b&gt;" style="text;strokeColor=none;align=center;fillColor=none;html=1;verticalAlign=middle;whiteSpace=wrap;rounded=0;fontFamily=Architects Daughter;fontSource=https://fonts.googleapis.com/css?family=Architects+Daughter;aspect=fixed;container=0;" vertex="1" parent="-t0UyOi2Fv0MCj0DZwLF-178">
          <mxGeometry x="265" y="2350" width="90" height="80" as="geometry" />
        </mxCell>
        <mxCell id="-t0UyOi2Fv0MCj0DZwLF-78" value="" style="rounded=0;whiteSpace=wrap;html=1;labelBackgroundColor=none;strokeColor=#0f100e;strokeWidth=2;align=center;verticalAlign=middle;fontFamily=Helvetica;fontSize=12;fontColor=default;fillColor=#d5e8d4;container=0;aspect=fixed;" vertex="1" parent="-t0UyOi2Fv0MCj0DZwLF-178">
          <mxGeometry x="42.5" y="2452.5" width="170" height="40" as="geometry" />
        </mxCell>
        <mxCell id="-t0UyOi2Fv0MCj0DZwLF-79" value="&lt;b&gt;&lt;font color=&quot;#000000&quot; face=&quot;Comic Sans MS&quot;&gt;altua_mayor_30 += al3&lt;/font&gt;&lt;/b&gt;&lt;div&gt;&lt;b&gt;&lt;font color=&quot;#000000&quot; face=&quot;Comic Sans MS&quot;&gt;mayor_30++&lt;/font&gt;&lt;/b&gt;&lt;/div&gt;" style="text;strokeColor=none;align=center;fillColor=none;html=1;verticalAlign=middle;whiteSpace=wrap;rounded=0;fontFamily=Architects Daughter;fontSource=https://fonts.googleapis.com/css?family=Architects+Daughter;container=0;aspect=fixed;" vertex="1" parent="-t0UyOi2Fv0MCj0DZwLF-178">
          <mxGeometry x="42.5" y="2450" width="170" height="45" as="geometry" />
        </mxCell>
        <mxCell id="-t0UyOi2Fv0MCj0DZwLF-82" value="" style="rhombus;whiteSpace=wrap;html=1;rounded=0;labelBackgroundColor=none;strokeColor=#0F140C;strokeWidth=2;align=center;verticalAlign=middle;fontFamily=Helvetica;fontSize=12;fontColor=default;fillColor=#d5e8d4;aspect=fixed;container=0;" vertex="1" parent="-t0UyOi2Fv0MCj0DZwLF-178">
          <mxGeometry x="245" y="2560" width="130" height="140" as="geometry" />
        </mxCell>
        <mxCell id="-t0UyOi2Fv0MCj0DZwLF-83" value="&lt;font face=&quot;Comic Sans MS&quot; color=&quot;#000000&quot;&gt;&lt;b&gt;al3 &amp;gt;= 1.7&amp;nbsp;&lt;/b&gt;&lt;/font&gt;&lt;div&gt;&lt;font face=&quot;Comic Sans MS&quot; color=&quot;#000000&quot;&gt;&lt;b&gt;&amp;amp;&amp;amp;&lt;/b&gt;&lt;/font&gt;&lt;/div&gt;&lt;div&gt;&lt;font face=&quot;Comic Sans MS&quot; color=&quot;#000000&quot;&gt;&lt;b&gt;al3 &amp;lt;= 1.8&lt;/b&gt;&lt;/font&gt;&lt;/div&gt;" style="text;strokeColor=none;align=center;fillColor=none;html=1;verticalAlign=middle;whiteSpace=wrap;rounded=0;fontFamily=Architects Daughter;fontSource=https://fonts.googleapis.com/css?family=Architects+Daughter;aspect=fixed;container=0;" vertex="1" parent="-t0UyOi2Fv0MCj0DZwLF-178">
          <mxGeometry x="265" y="2590" width="90" height="80" as="geometry" />
        </mxCell>
        <mxCell id="-t0UyOi2Fv0MCj0DZwLF-86" value="" style="rounded=0;whiteSpace=wrap;html=1;labelBackgroundColor=none;strokeColor=#0f100e;strokeWidth=2;align=center;verticalAlign=middle;fontFamily=Helvetica;fontSize=12;fontColor=default;fillColor=#d5e8d4;container=0;aspect=fixed;" vertex="1" parent="-t0UyOi2Fv0MCj0DZwLF-178">
          <mxGeometry x="10" y="2693" width="225" height="40" as="geometry" />
        </mxCell>
        <mxCell id="-t0UyOi2Fv0MCj0DZwLF-87" value="&lt;b&gt;&lt;font color=&quot;#000000&quot; face=&quot;Comic Sans MS&quot;&gt;cantidad_personas_altura_17_18++&lt;/font&gt;&lt;/b&gt;" style="text;strokeColor=none;align=center;fillColor=none;html=1;verticalAlign=middle;whiteSpace=wrap;rounded=0;fontFamily=Architects Daughter;fontSource=https://fonts.googleapis.com/css?family=Architects+Daughter;aspect=fixed;container=0;" vertex="1" parent="-t0UyOi2Fv0MCj0DZwLF-178">
          <mxGeometry x="42.5" y="2698" width="160" height="30" as="geometry" />
        </mxCell>
        <mxCell id="-t0UyOi2Fv0MCj0DZwLF-88" style="edgeStyle=orthogonalEdgeStyle;rounded=0;sketch=1;hachureGap=4;jiggle=2;curveFitting=1;orthogonalLoop=1;jettySize=auto;html=1;exitX=0.5;exitY=1;exitDx=0;exitDy=0;fontFamily=Architects Daughter;fontSource=https://fonts.googleapis.com/css?family=Architects+Daughter;" edge="1" parent="-t0UyOi2Fv0MCj0DZwLF-178" source="-t0UyOi2Fv0MCj0DZwLF-87" target="-t0UyOi2Fv0MCj0DZwLF-87">
          <mxGeometry relative="1" as="geometry" />
        </mxCell>
        <mxCell id="-t0UyOi2Fv0MCj0DZwLF-91" value="" style="rhombus;whiteSpace=wrap;html=1;rounded=0;labelBackgroundColor=none;strokeColor=#0F140C;strokeWidth=2;align=center;verticalAlign=middle;fontFamily=Helvetica;fontSize=12;fontColor=default;fillColor=#d5e8d4;aspect=fixed;container=0;" vertex="1" parent="-t0UyOi2Fv0MCj0DZwLF-178">
          <mxGeometry x="245" y="2790" width="130" height="140" as="geometry" />
        </mxCell>
        <mxCell id="-t0UyOi2Fv0MCj0DZwLF-92" value="&lt;font face=&quot;Comic Sans MS&quot; color=&quot;#000000&quot;&gt;&lt;b&gt;e3 == 20&amp;nbsp;&lt;/b&gt;&lt;/font&gt;&lt;div&gt;&lt;font face=&quot;Comic Sans MS&quot; color=&quot;#000000&quot;&gt;&lt;b&gt;||&lt;/b&gt;&lt;/font&gt;&lt;/div&gt;&lt;div&gt;&lt;font face=&quot;Comic Sans MS&quot; color=&quot;#000000&quot;&gt;&lt;b&gt;e3 == 30&lt;/b&gt;&lt;/font&gt;&lt;/div&gt;&lt;div&gt;&lt;font face=&quot;Comic Sans MS&quot; color=&quot;#000000&quot;&gt;&lt;b&gt;||&lt;/b&gt;&lt;/font&gt;&lt;/div&gt;&lt;div&gt;&lt;font face=&quot;Comic Sans MS&quot; color=&quot;#000000&quot;&gt;&lt;b&gt;e3 == 40&lt;/b&gt;&lt;/font&gt;&lt;/div&gt;" style="text;strokeColor=none;align=center;fillColor=none;html=1;verticalAlign=middle;whiteSpace=wrap;rounded=0;fontFamily=Architects Daughter;fontSource=https://fonts.googleapis.com/css?family=Architects+Daughter;aspect=fixed;container=0;" vertex="1" parent="-t0UyOi2Fv0MCj0DZwLF-178">
          <mxGeometry x="265" y="2820" width="90" height="80" as="geometry" />
        </mxCell>
        <mxCell id="-t0UyOi2Fv0MCj0DZwLF-95" value="" style="rounded=0;whiteSpace=wrap;html=1;labelBackgroundColor=none;strokeColor=#0f100e;strokeWidth=2;align=center;verticalAlign=middle;fontFamily=Helvetica;fontSize=12;fontColor=default;fillColor=#d5e8d4;container=0;aspect=fixed;" vertex="1" parent="-t0UyOi2Fv0MCj0DZwLF-178">
          <mxGeometry x="5" y="2930" width="245" height="40" as="geometry" />
        </mxCell>
        <mxCell id="-t0UyOi2Fv0MCj0DZwLF-96" value="&lt;b&gt;&lt;font color=&quot;#000000&quot; face=&quot;Comic Sans MS&quot;&gt;cantidad_personas_altura_40_30_40++&lt;/font&gt;&lt;/b&gt;" style="text;strokeColor=none;align=center;fillColor=none;html=1;verticalAlign=middle;whiteSpace=wrap;rounded=0;fontFamily=Architects Daughter;fontSource=https://fonts.googleapis.com/css?family=Architects+Daughter;container=0;aspect=fixed;" vertex="1" parent="-t0UyOi2Fv0MCj0DZwLF-178">
          <mxGeometry x="9" y="2935" width="240" height="30" as="geometry" />
        </mxCell>
        <mxCell id="-t0UyOi2Fv0MCj0DZwLF-99" value="" style="rhombus;whiteSpace=wrap;html=1;rounded=0;labelBackgroundColor=none;strokeColor=#0F140C;strokeWidth=2;align=center;verticalAlign=middle;fontFamily=Helvetica;fontSize=12;fontColor=default;fillColor=#d5e8d4;aspect=fixed;container=0;" vertex="1" parent="-t0UyOi2Fv0MCj0DZwLF-178">
          <mxGeometry x="245" y="3030" width="130" height="140" as="geometry" />
        </mxCell>
        <mxCell id="-t0UyOi2Fv0MCj0DZwLF-100" value="&lt;b&gt;&lt;font color=&quot;#000000&quot; style=&quot;font-size: 12px;&quot; face=&quot;Comic Sans MS&quot;&gt;e4 &amp;gt;= 30&lt;/font&gt;&lt;/b&gt;&lt;div&gt;&lt;b&gt;&lt;font color=&quot;#000000&quot; style=&quot;font-size: 12px;&quot; face=&quot;Comic Sans MS&quot;&gt;&amp;amp;&amp;amp;&lt;/font&gt;&lt;/b&gt;&lt;/div&gt;&lt;div&gt;&lt;b&gt;&lt;font color=&quot;#000000&quot; style=&quot;font-size: 12px;&quot; face=&quot;Comic Sans MS&quot;&gt;al4 &amp;gt;= 1.8&lt;/font&gt;&lt;/b&gt;&lt;/div&gt;" style="text;strokeColor=none;align=center;fillColor=none;html=1;verticalAlign=middle;whiteSpace=wrap;rounded=0;fontFamily=Architects Daughter;fontSource=https://fonts.googleapis.com/css?family=Architects+Daughter;aspect=fixed;container=0;" vertex="1" parent="-t0UyOi2Fv0MCj0DZwLF-178">
          <mxGeometry x="265" y="3060" width="90" height="80" as="geometry" />
        </mxCell>
        <mxCell id="-t0UyOi2Fv0MCj0DZwLF-101" style="edgeStyle=orthogonalEdgeStyle;rounded=0;sketch=1;hachureGap=4;jiggle=2;curveFitting=1;orthogonalLoop=1;jettySize=auto;html=1;exitX=0.5;exitY=1;exitDx=0;exitDy=0;fontFamily=Architects Daughter;fontSource=https://fonts.googleapis.com/css?family=Architects+Daughter;" edge="1" parent="-t0UyOi2Fv0MCj0DZwLF-178" source="-t0UyOi2Fv0MCj0DZwLF-100" target="-t0UyOi2Fv0MCj0DZwLF-100">
          <mxGeometry relative="1" as="geometry" />
        </mxCell>
        <mxCell id="-t0UyOi2Fv0MCj0DZwLF-105" value="" style="rounded=0;whiteSpace=wrap;html=1;labelBackgroundColor=none;strokeColor=#0f100e;strokeWidth=2;align=center;verticalAlign=middle;fontFamily=Helvetica;fontSize=12;fontColor=default;fillColor=#d5e8d4;aspect=fixed;container=0;" vertex="1" parent="-t0UyOi2Fv0MCj0DZwLF-178">
          <mxGeometry x="50" y="3170" width="180" height="40" as="geometry" />
        </mxCell>
        <mxCell id="-t0UyOi2Fv0MCj0DZwLF-106" value="&lt;b&gt;&lt;font color=&quot;#000000&quot; face=&quot;Comic Sans MS&quot;&gt;personas_30_altuta180++&lt;/font&gt;&lt;/b&gt;" style="text;strokeColor=none;align=center;fillColor=none;html=1;verticalAlign=middle;whiteSpace=wrap;rounded=0;fontFamily=Architects Daughter;fontSource=https://fonts.googleapis.com/css?family=Architects+Daughter;aspect=fixed;container=0;" vertex="1" parent="-t0UyOi2Fv0MCj0DZwLF-178">
          <mxGeometry x="60" y="3175" width="160" height="30" as="geometry" />
        </mxCell>
        <mxCell id="-t0UyOi2Fv0MCj0DZwLF-109" value="" style="rhombus;whiteSpace=wrap;html=1;rounded=0;labelBackgroundColor=none;strokeColor=#0F140C;strokeWidth=2;align=center;verticalAlign=middle;fontFamily=Helvetica;fontSize=12;fontColor=default;fillColor=#d5e8d4;aspect=fixed;container=0;" vertex="1" parent="-t0UyOi2Fv0MCj0DZwLF-178">
          <mxGeometry x="245" y="3270" width="130" height="140" as="geometry" />
        </mxCell>
        <mxCell id="-t0UyOi2Fv0MCj0DZwLF-110" value="&lt;b&gt;&lt;font color=&quot;#000000&quot; style=&quot;font-size: 12px;&quot; face=&quot;Comic Sans MS&quot;&gt;e4 &amp;gt;= 30&lt;/font&gt;&lt;/b&gt;" style="text;strokeColor=none;align=center;fillColor=none;html=1;verticalAlign=middle;whiteSpace=wrap;rounded=0;fontFamily=Architects Daughter;fontSource=https://fonts.googleapis.com/css?family=Architects+Daughter;aspect=fixed;container=0;" vertex="1" parent="-t0UyOi2Fv0MCj0DZwLF-178">
          <mxGeometry x="265" y="3300" width="90" height="80" as="geometry" />
        </mxCell>
        <mxCell id="-t0UyOi2Fv0MCj0DZwLF-113" value="" style="rounded=0;whiteSpace=wrap;html=1;labelBackgroundColor=none;strokeColor=#0f100e;strokeWidth=2;align=center;verticalAlign=middle;fontFamily=Helvetica;fontSize=12;fontColor=default;fillColor=#d5e8d4;container=0;aspect=fixed;" vertex="1" parent="-t0UyOi2Fv0MCj0DZwLF-178">
          <mxGeometry x="55" y="3402.5" width="170" height="40" as="geometry" />
        </mxCell>
        <mxCell id="-t0UyOi2Fv0MCj0DZwLF-114" value="&lt;b&gt;&lt;font color=&quot;#000000&quot; face=&quot;Comic Sans MS&quot;&gt;altua_mayor_30 += al4&lt;/font&gt;&lt;/b&gt;&lt;div&gt;&lt;b&gt;&lt;font color=&quot;#000000&quot; face=&quot;Comic Sans MS&quot;&gt;mayor_30++&lt;/font&gt;&lt;/b&gt;&lt;/div&gt;" style="text;strokeColor=none;align=center;fillColor=none;html=1;verticalAlign=middle;whiteSpace=wrap;rounded=0;fontFamily=Architects Daughter;fontSource=https://fonts.googleapis.com/css?family=Architects+Daughter;container=0;aspect=fixed;" vertex="1" parent="-t0UyOi2Fv0MCj0DZwLF-178">
          <mxGeometry x="55" y="3400" width="170" height="45" as="geometry" />
        </mxCell>
        <mxCell id="-t0UyOi2Fv0MCj0DZwLF-117" value="" style="rhombus;whiteSpace=wrap;html=1;rounded=0;labelBackgroundColor=none;strokeColor=#0F140C;strokeWidth=2;align=center;verticalAlign=middle;fontFamily=Helvetica;fontSize=12;fontColor=default;fillColor=#d5e8d4;aspect=fixed;container=0;" vertex="1" parent="-t0UyOi2Fv0MCj0DZwLF-178">
          <mxGeometry x="245" y="3510" width="130" height="140" as="geometry" />
        </mxCell>
        <mxCell id="-t0UyOi2Fv0MCj0DZwLF-118" value="&lt;font face=&quot;Comic Sans MS&quot; color=&quot;#000000&quot;&gt;&lt;b&gt;al4 &amp;gt;= 1.7&amp;nbsp;&lt;/b&gt;&lt;/font&gt;&lt;div&gt;&lt;font face=&quot;Comic Sans MS&quot; color=&quot;#000000&quot;&gt;&lt;b&gt;&amp;amp;&amp;amp;&lt;/b&gt;&lt;/font&gt;&lt;/div&gt;&lt;div&gt;&lt;font face=&quot;Comic Sans MS&quot; color=&quot;#000000&quot;&gt;&lt;b&gt;al4 &amp;lt;= 1.8&lt;/b&gt;&lt;/font&gt;&lt;/div&gt;" style="text;strokeColor=none;align=center;fillColor=none;html=1;verticalAlign=middle;whiteSpace=wrap;rounded=0;fontFamily=Architects Daughter;fontSource=https://fonts.googleapis.com/css?family=Architects+Daughter;aspect=fixed;container=0;" vertex="1" parent="-t0UyOi2Fv0MCj0DZwLF-178">
          <mxGeometry x="265" y="3540" width="90" height="80" as="geometry" />
        </mxCell>
        <mxCell id="-t0UyOi2Fv0MCj0DZwLF-121" value="" style="rounded=0;whiteSpace=wrap;html=1;labelBackgroundColor=none;strokeColor=#0f100e;strokeWidth=2;align=center;verticalAlign=middle;fontFamily=Helvetica;fontSize=12;fontColor=default;fillColor=#d5e8d4;container=0;aspect=fixed;" vertex="1" parent="-t0UyOi2Fv0MCj0DZwLF-178">
          <mxGeometry x="15" y="3650" width="225" height="40" as="geometry" />
        </mxCell>
        <mxCell id="-t0UyOi2Fv0MCj0DZwLF-122" value="&lt;b&gt;&lt;font color=&quot;#000000&quot; face=&quot;Comic Sans MS&quot;&gt;cantidad_personas_altura_17_18++&lt;/font&gt;&lt;/b&gt;" style="text;strokeColor=none;align=center;fillColor=none;html=1;verticalAlign=middle;whiteSpace=wrap;rounded=0;fontFamily=Architects Daughter;fontSource=https://fonts.googleapis.com/css?family=Architects+Daughter;aspect=fixed;container=0;" vertex="1" parent="-t0UyOi2Fv0MCj0DZwLF-178">
          <mxGeometry x="47.5" y="3655" width="160" height="30" as="geometry" />
        </mxCell>
        <mxCell id="-t0UyOi2Fv0MCj0DZwLF-123" style="edgeStyle=orthogonalEdgeStyle;rounded=0;sketch=1;hachureGap=4;jiggle=2;curveFitting=1;orthogonalLoop=1;jettySize=auto;html=1;exitX=0.5;exitY=1;exitDx=0;exitDy=0;fontFamily=Architects Daughter;fontSource=https://fonts.googleapis.com/css?family=Architects+Daughter;" edge="1" parent="-t0UyOi2Fv0MCj0DZwLF-178" source="-t0UyOi2Fv0MCj0DZwLF-122" target="-t0UyOi2Fv0MCj0DZwLF-122">
          <mxGeometry relative="1" as="geometry" />
        </mxCell>
        <mxCell id="-t0UyOi2Fv0MCj0DZwLF-126" value="" style="rhombus;whiteSpace=wrap;html=1;rounded=0;labelBackgroundColor=none;strokeColor=#0F140C;strokeWidth=2;align=center;verticalAlign=middle;fontFamily=Helvetica;fontSize=12;fontColor=default;fillColor=#d5e8d4;aspect=fixed;container=0;" vertex="1" parent="-t0UyOi2Fv0MCj0DZwLF-178">
          <mxGeometry x="245" y="3750" width="130" height="140" as="geometry" />
        </mxCell>
        <mxCell id="-t0UyOi2Fv0MCj0DZwLF-127" value="&lt;font face=&quot;Comic Sans MS&quot; color=&quot;#000000&quot;&gt;&lt;b&gt;e4 == 20&amp;nbsp;&lt;/b&gt;&lt;/font&gt;&lt;div&gt;&lt;font face=&quot;Comic Sans MS&quot; color=&quot;#000000&quot;&gt;&lt;b&gt;||&lt;/b&gt;&lt;/font&gt;&lt;/div&gt;&lt;div&gt;&lt;font face=&quot;Comic Sans MS&quot; color=&quot;#000000&quot;&gt;&lt;b&gt;e4 == 30&lt;/b&gt;&lt;/font&gt;&lt;/div&gt;&lt;div&gt;&lt;font face=&quot;Comic Sans MS&quot; color=&quot;#000000&quot;&gt;&lt;b&gt;||&lt;/b&gt;&lt;/font&gt;&lt;/div&gt;&lt;div&gt;&lt;font face=&quot;Comic Sans MS&quot; color=&quot;#000000&quot;&gt;&lt;b&gt;e4 == 40&lt;/b&gt;&lt;/font&gt;&lt;/div&gt;" style="text;strokeColor=none;align=center;fillColor=none;html=1;verticalAlign=middle;whiteSpace=wrap;rounded=0;fontFamily=Architects Daughter;fontSource=https://fonts.googleapis.com/css?family=Architects+Daughter;aspect=fixed;container=0;" vertex="1" parent="-t0UyOi2Fv0MCj0DZwLF-178">
          <mxGeometry x="265" y="3780" width="90" height="80" as="geometry" />
        </mxCell>
        <mxCell id="-t0UyOi2Fv0MCj0DZwLF-130" value="" style="rounded=0;whiteSpace=wrap;html=1;labelBackgroundColor=none;strokeColor=#0f100e;strokeWidth=2;align=center;verticalAlign=middle;fontFamily=Helvetica;fontSize=12;fontColor=default;fillColor=#d5e8d4;container=0;aspect=fixed;" vertex="1" parent="-t0UyOi2Fv0MCj0DZwLF-178">
          <mxGeometry x="12.5" y="3870" width="245" height="40" as="geometry" />
        </mxCell>
        <mxCell id="-t0UyOi2Fv0MCj0DZwLF-131" value="&lt;b&gt;&lt;font color=&quot;#000000&quot; face=&quot;Comic Sans MS&quot;&gt;cantidad_personas_altura_40_30_40++&lt;/font&gt;&lt;/b&gt;" style="text;strokeColor=none;align=center;fillColor=none;html=1;verticalAlign=middle;whiteSpace=wrap;rounded=0;fontFamily=Architects Daughter;fontSource=https://fonts.googleapis.com/css?family=Architects+Daughter;container=0;aspect=fixed;" vertex="1" parent="-t0UyOi2Fv0MCj0DZwLF-178">
          <mxGeometry x="16.5" y="3875" width="240" height="30" as="geometry" />
        </mxCell>
        <mxCell id="-t0UyOi2Fv0MCj0DZwLF-134" value="" style="rhombus;whiteSpace=wrap;html=1;rounded=0;labelBackgroundColor=none;strokeColor=#0F140C;strokeWidth=2;align=center;verticalAlign=middle;fontFamily=Helvetica;fontSize=12;fontColor=default;fillColor=#d5e8d4;aspect=fixed;container=0;" vertex="1" parent="-t0UyOi2Fv0MCj0DZwLF-178">
          <mxGeometry x="245" y="3960" width="130" height="140" as="geometry" />
        </mxCell>
        <mxCell id="-t0UyOi2Fv0MCj0DZwLF-135" value="&lt;b&gt;&lt;font color=&quot;#000000&quot; style=&quot;font-size: 12px;&quot; face=&quot;Comic Sans MS&quot;&gt;e5 &amp;gt;= 30&lt;/font&gt;&lt;/b&gt;&lt;div&gt;&lt;b&gt;&lt;font color=&quot;#000000&quot; style=&quot;font-size: 12px;&quot; face=&quot;Comic Sans MS&quot;&gt;&amp;amp;&amp;amp;&lt;/font&gt;&lt;/b&gt;&lt;/div&gt;&lt;div&gt;&lt;b&gt;&lt;font color=&quot;#000000&quot; style=&quot;font-size: 12px;&quot; face=&quot;Comic Sans MS&quot;&gt;al5 &amp;gt;= 1.8&lt;/font&gt;&lt;/b&gt;&lt;/div&gt;" style="text;strokeColor=none;align=center;fillColor=none;html=1;verticalAlign=middle;whiteSpace=wrap;rounded=0;fontFamily=Architects Daughter;fontSource=https://fonts.googleapis.com/css?family=Architects+Daughter;aspect=fixed;container=0;" vertex="1" parent="-t0UyOi2Fv0MCj0DZwLF-178">
          <mxGeometry x="265" y="3990" width="90" height="80" as="geometry" />
        </mxCell>
        <mxCell id="-t0UyOi2Fv0MCj0DZwLF-136" style="edgeStyle=orthogonalEdgeStyle;rounded=0;sketch=1;hachureGap=4;jiggle=2;curveFitting=1;orthogonalLoop=1;jettySize=auto;html=1;exitX=0.5;exitY=1;exitDx=0;exitDy=0;fontFamily=Architects Daughter;fontSource=https://fonts.googleapis.com/css?family=Architects+Daughter;" edge="1" parent="-t0UyOi2Fv0MCj0DZwLF-178" source="-t0UyOi2Fv0MCj0DZwLF-135" target="-t0UyOi2Fv0MCj0DZwLF-135">
          <mxGeometry relative="1" as="geometry" />
        </mxCell>
        <mxCell id="-t0UyOi2Fv0MCj0DZwLF-139" value="" style="rounded=0;whiteSpace=wrap;html=1;labelBackgroundColor=none;strokeColor=#0f100e;strokeWidth=2;align=center;verticalAlign=middle;fontFamily=Helvetica;fontSize=12;fontColor=default;fillColor=#d5e8d4;aspect=fixed;container=0;" vertex="1" parent="-t0UyOi2Fv0MCj0DZwLF-178">
          <mxGeometry x="50" y="4080" width="180" height="40" as="geometry" />
        </mxCell>
        <mxCell id="-t0UyOi2Fv0MCj0DZwLF-140" value="&lt;b&gt;&lt;font color=&quot;#000000&quot; face=&quot;Comic Sans MS&quot;&gt;personas_30_altuta180++&lt;/font&gt;&lt;/b&gt;" style="text;strokeColor=none;align=center;fillColor=none;html=1;verticalAlign=middle;whiteSpace=wrap;rounded=0;fontFamily=Architects Daughter;fontSource=https://fonts.googleapis.com/css?family=Architects+Daughter;aspect=fixed;container=0;" vertex="1" parent="-t0UyOi2Fv0MCj0DZwLF-178">
          <mxGeometry x="60" y="4085" width="160" height="30" as="geometry" />
        </mxCell>
        <mxCell id="-t0UyOi2Fv0MCj0DZwLF-143" value="" style="rhombus;whiteSpace=wrap;html=1;rounded=0;labelBackgroundColor=none;strokeColor=#0F140C;strokeWidth=2;align=center;verticalAlign=middle;fontFamily=Helvetica;fontSize=12;fontColor=default;fillColor=#d5e8d4;aspect=fixed;container=0;" vertex="1" parent="-t0UyOi2Fv0MCj0DZwLF-178">
          <mxGeometry x="245" y="4180" width="130" height="140" as="geometry" />
        </mxCell>
        <mxCell id="-t0UyOi2Fv0MCj0DZwLF-144" value="&lt;b&gt;&lt;font color=&quot;#000000&quot; style=&quot;font-size: 12px;&quot; face=&quot;Comic Sans MS&quot;&gt;e5 &amp;gt;= 30&lt;/font&gt;&lt;/b&gt;" style="text;strokeColor=none;align=center;fillColor=none;html=1;verticalAlign=middle;whiteSpace=wrap;rounded=0;fontFamily=Architects Daughter;fontSource=https://fonts.googleapis.com/css?family=Architects+Daughter;aspect=fixed;container=0;" vertex="1" parent="-t0UyOi2Fv0MCj0DZwLF-178">
          <mxGeometry x="265" y="4210" width="90" height="80" as="geometry" />
        </mxCell>
        <mxCell id="-t0UyOi2Fv0MCj0DZwLF-147" value="" style="rounded=0;whiteSpace=wrap;html=1;labelBackgroundColor=none;strokeColor=#0f100e;strokeWidth=2;align=center;verticalAlign=middle;fontFamily=Helvetica;fontSize=12;fontColor=default;fillColor=#d5e8d4;container=0;aspect=fixed;" vertex="1" parent="-t0UyOi2Fv0MCj0DZwLF-178">
          <mxGeometry x="50" y="4312.5" width="170" height="40" as="geometry" />
        </mxCell>
        <mxCell id="-t0UyOi2Fv0MCj0DZwLF-148" value="&lt;b&gt;&lt;font color=&quot;#000000&quot; face=&quot;Comic Sans MS&quot;&gt;altua_mayor_30 += al5&lt;/font&gt;&lt;/b&gt;&lt;div&gt;&lt;b&gt;&lt;font color=&quot;#000000&quot; face=&quot;Comic Sans MS&quot;&gt;mayor_30++&lt;/font&gt;&lt;/b&gt;&lt;/div&gt;" style="text;strokeColor=none;align=center;fillColor=none;html=1;verticalAlign=middle;whiteSpace=wrap;rounded=0;fontFamily=Architects Daughter;fontSource=https://fonts.googleapis.com/css?family=Architects+Daughter;container=0;aspect=fixed;" vertex="1" parent="-t0UyOi2Fv0MCj0DZwLF-178">
          <mxGeometry x="50" y="4310" width="170" height="45" as="geometry" />
        </mxCell>
        <mxCell id="-t0UyOi2Fv0MCj0DZwLF-151" value="" style="rhombus;whiteSpace=wrap;html=1;rounded=0;labelBackgroundColor=none;strokeColor=#0F140C;strokeWidth=2;align=center;verticalAlign=middle;fontFamily=Helvetica;fontSize=12;fontColor=default;fillColor=#d5e8d4;aspect=fixed;container=0;" vertex="1" parent="-t0UyOi2Fv0MCj0DZwLF-178">
          <mxGeometry x="245" y="4410" width="130" height="140" as="geometry" />
        </mxCell>
        <mxCell id="-t0UyOi2Fv0MCj0DZwLF-152" value="&lt;font face=&quot;Comic Sans MS&quot; color=&quot;#000000&quot;&gt;&lt;b&gt;al5 &amp;gt;= 1.7&amp;nbsp;&lt;/b&gt;&lt;/font&gt;&lt;div&gt;&lt;font face=&quot;Comic Sans MS&quot; color=&quot;#000000&quot;&gt;&lt;b&gt;&amp;amp;&amp;amp;&lt;/b&gt;&lt;/font&gt;&lt;/div&gt;&lt;div&gt;&lt;font face=&quot;Comic Sans MS&quot; color=&quot;#000000&quot;&gt;&lt;b&gt;al5 &amp;lt;= 1.8&lt;/b&gt;&lt;/font&gt;&lt;/div&gt;" style="text;strokeColor=none;align=center;fillColor=none;html=1;verticalAlign=middle;whiteSpace=wrap;rounded=0;fontFamily=Architects Daughter;fontSource=https://fonts.googleapis.com/css?family=Architects+Daughter;aspect=fixed;container=0;" vertex="1" parent="-t0UyOi2Fv0MCj0DZwLF-178">
          <mxGeometry x="265" y="4440" width="90" height="80" as="geometry" />
        </mxCell>
        <mxCell id="-t0UyOi2Fv0MCj0DZwLF-155" value="" style="rounded=0;whiteSpace=wrap;html=1;labelBackgroundColor=none;strokeColor=#0f100e;strokeWidth=2;align=center;verticalAlign=middle;fontFamily=Helvetica;fontSize=12;fontColor=default;fillColor=#d5e8d4;container=0;aspect=fixed;" vertex="1" parent="-t0UyOi2Fv0MCj0DZwLF-178">
          <mxGeometry x="20" y="4550" width="225" height="40" as="geometry" />
        </mxCell>
        <mxCell id="-t0UyOi2Fv0MCj0DZwLF-156" value="&lt;b&gt;&lt;font color=&quot;#000000&quot; face=&quot;Comic Sans MS&quot;&gt;cantidad_personas_altura_17_18++&lt;/font&gt;&lt;/b&gt;" style="text;strokeColor=none;align=center;fillColor=none;html=1;verticalAlign=middle;whiteSpace=wrap;rounded=0;fontFamily=Architects Daughter;fontSource=https://fonts.googleapis.com/css?family=Architects+Daughter;aspect=fixed;container=0;" vertex="1" parent="-t0UyOi2Fv0MCj0DZwLF-178">
          <mxGeometry x="52.5" y="4555" width="160" height="30" as="geometry" />
        </mxCell>
        <mxCell id="-t0UyOi2Fv0MCj0DZwLF-157" style="edgeStyle=orthogonalEdgeStyle;rounded=0;sketch=1;hachureGap=4;jiggle=2;curveFitting=1;orthogonalLoop=1;jettySize=auto;html=1;exitX=0.5;exitY=1;exitDx=0;exitDy=0;fontFamily=Architects Daughter;fontSource=https://fonts.googleapis.com/css?family=Architects+Daughter;" edge="1" parent="-t0UyOi2Fv0MCj0DZwLF-178" source="-t0UyOi2Fv0MCj0DZwLF-156" target="-t0UyOi2Fv0MCj0DZwLF-156">
          <mxGeometry relative="1" as="geometry" />
        </mxCell>
        <mxCell id="-t0UyOi2Fv0MCj0DZwLF-160" value="" style="rhombus;whiteSpace=wrap;html=1;rounded=0;labelBackgroundColor=none;strokeColor=#0F140C;strokeWidth=2;align=center;verticalAlign=middle;fontFamily=Helvetica;fontSize=12;fontColor=default;fillColor=#d5e8d4;aspect=fixed;container=0;" vertex="1" parent="-t0UyOi2Fv0MCj0DZwLF-178">
          <mxGeometry x="245" y="4650" width="130" height="140" as="geometry" />
        </mxCell>
        <mxCell id="-t0UyOi2Fv0MCj0DZwLF-161" value="&lt;font face=&quot;Comic Sans MS&quot; color=&quot;#000000&quot;&gt;&lt;b&gt;e5 == 20&amp;nbsp;&lt;/b&gt;&lt;/font&gt;&lt;div&gt;&lt;font face=&quot;Comic Sans MS&quot; color=&quot;#000000&quot;&gt;&lt;b&gt;||&lt;/b&gt;&lt;/font&gt;&lt;/div&gt;&lt;div&gt;&lt;font face=&quot;Comic Sans MS&quot; color=&quot;#000000&quot;&gt;&lt;b&gt;e5 == 30&lt;/b&gt;&lt;/font&gt;&lt;/div&gt;&lt;div&gt;&lt;font face=&quot;Comic Sans MS&quot; color=&quot;#000000&quot;&gt;&lt;b&gt;||&lt;/b&gt;&lt;/font&gt;&lt;/div&gt;&lt;div&gt;&lt;font face=&quot;Comic Sans MS&quot; color=&quot;#000000&quot;&gt;&lt;b&gt;e5 == 40&lt;/b&gt;&lt;/font&gt;&lt;/div&gt;" style="text;strokeColor=none;align=center;fillColor=none;html=1;verticalAlign=middle;whiteSpace=wrap;rounded=0;fontFamily=Architects Daughter;fontSource=https://fonts.googleapis.com/css?family=Architects+Daughter;aspect=fixed;container=0;" vertex="1" parent="-t0UyOi2Fv0MCj0DZwLF-178">
          <mxGeometry x="265" y="4680" width="90" height="80" as="geometry" />
        </mxCell>
        <mxCell id="-t0UyOi2Fv0MCj0DZwLF-164" value="" style="rounded=0;whiteSpace=wrap;html=1;labelBackgroundColor=none;strokeColor=#0f100e;strokeWidth=2;align=center;verticalAlign=middle;fontFamily=Helvetica;fontSize=12;fontColor=default;fillColor=#d5e8d4;container=0;aspect=fixed;" vertex="1" parent="-t0UyOi2Fv0MCj0DZwLF-178">
          <mxGeometry y="4790" width="245" height="40" as="geometry" />
        </mxCell>
        <mxCell id="-t0UyOi2Fv0MCj0DZwLF-165" value="&lt;b&gt;&lt;font color=&quot;#000000&quot; face=&quot;Comic Sans MS&quot;&gt;cantidad_personas_altura_40_30_40++&lt;/font&gt;&lt;/b&gt;" style="text;strokeColor=none;align=center;fillColor=none;html=1;verticalAlign=middle;whiteSpace=wrap;rounded=0;fontFamily=Architects Daughter;fontSource=https://fonts.googleapis.com/css?family=Architects+Daughter;container=0;aspect=fixed;" vertex="1" parent="-t0UyOi2Fv0MCj0DZwLF-178">
          <mxGeometry x="4" y="4795" width="240" height="30" as="geometry" />
        </mxCell>
        <mxCell id="-t0UyOi2Fv0MCj0DZwLF-168" value="" style="rounded=0;whiteSpace=wrap;html=1;labelBackgroundColor=none;strokeColor=#0f100e;strokeWidth=2;align=center;verticalAlign=middle;fontFamily=Helvetica;fontSize=12;fontColor=default;fillColor=#d5e8d4;container=0;" vertex="1" parent="-t0UyOi2Fv0MCj0DZwLF-178">
          <mxGeometry x="125" y="4900" width="370" height="40" as="geometry" />
        </mxCell>
        <mxCell id="-t0UyOi2Fv0MCj0DZwLF-169" value="&lt;b&gt;&lt;font color=&quot;#000000&quot; face=&quot;Comic Sans MS&quot;&gt;promedio_altura_mayor_30 = altura_mayor_30 / mayor_30&lt;/font&gt;&lt;/b&gt;" style="text;strokeColor=none;align=center;fillColor=none;html=1;verticalAlign=middle;whiteSpace=wrap;rounded=0;fontFamily=Architects Daughter;fontSource=https://fonts.googleapis.com/css?family=Architects+Daughter;container=0;" vertex="1" parent="-t0UyOi2Fv0MCj0DZwLF-178">
          <mxGeometry x="132.5" y="4910" width="355" height="20" as="geometry" />
        </mxCell>
        <mxCell id="ZJasjVeHh87FWfpovblg-5" value="" style="shape=trapezoid;perimeter=trapezoidPerimeter;whiteSpace=wrap;html=1;fixedSize=1;rounded=0;labelBackgroundColor=none;strokeColor=#0F140C;strokeWidth=2;align=center;verticalAlign=middle;fontFamily=Helvetica;fontSize=12;fontColor=default;fillColor=#d5e8d4;aspect=fixed;" parent="-t0UyOi2Fv0MCj0DZwLF-178" vertex="1">
          <mxGeometry x="205" y="4971" width="210" height="80" as="geometry" />
        </mxCell>
        <mxCell id="-t0UyOi2Fv0MCj0DZwLF-174" value="&lt;b&gt;&lt;font color=&quot;#000000&quot; face=&quot;Comic Sans MS&quot;&gt;personas_30_altura_180&lt;/font&gt;&lt;/b&gt;&lt;div&gt;&lt;b&gt;&lt;font color=&quot;#000000&quot; face=&quot;Comic Sans MS&quot;&gt;promedio_altura_mayor_30&lt;/font&gt;&lt;/b&gt;&lt;/div&gt;&lt;div&gt;&lt;b&gt;&lt;font color=&quot;#000000&quot; face=&quot;Comic Sans MS&quot;&gt;cantidad_personas_17_18&lt;/font&gt;&lt;/b&gt;&lt;/div&gt;&lt;div&gt;&lt;b&gt;&lt;font color=&quot;#000000&quot; face=&quot;Comic Sans MS&quot;&gt;cantidad_personas_20_30_40&lt;/font&gt;&lt;/b&gt;&lt;/div&gt;" style="text;strokeColor=none;align=center;fillColor=none;html=1;verticalAlign=middle;whiteSpace=wrap;rounded=0;fontFamily=Architects Daughter;fontSource=https://fonts.googleapis.com/css?family=Architects+Daughter;container=0;aspect=fixed;" vertex="1" parent="-t0UyOi2Fv0MCj0DZwLF-178">
          <mxGeometry x="210" y="4971" width="200" height="80" as="geometry" />
        </mxCell>
        <mxCell id="-t0UyOi2Fv0MCj0DZwLF-179" value="" style="line;strokeWidth=2;direction=south;html=1;hachureGap=4;fontFamily=Architects Daughter;fontSource=https://fonts.googleapis.com/css?family=Architects+Daughter;strokeColor=#000000;" vertex="1" parent="-t0UyOi2Fv0MCj0DZwLF-178">
          <mxGeometry x="305" y="40" width="10" height="40" as="geometry" />
        </mxCell>
        <mxCell id="-t0UyOi2Fv0MCj0DZwLF-183" value="" style="line;strokeWidth=2;direction=south;html=1;hachureGap=4;fontFamily=Architects Daughter;fontSource=https://fonts.googleapis.com/css?family=Architects+Daughter;strokeColor=#000000;" vertex="1" parent="-t0UyOi2Fv0MCj0DZwLF-178">
          <mxGeometry x="305" y="130" width="10" height="30" as="geometry" />
        </mxCell>
        <mxCell id="-t0UyOi2Fv0MCj0DZwLF-211" value="" style="line;strokeWidth=2;html=1;perimeter=backbonePerimeter;points=[];outlineConnect=0;hachureGap=4;fontFamily=Architects Daughter;fontSource=https://fonts.googleapis.com/css?family=Architects+Daughter;strokeColor=#000000;" vertex="1" parent="-t0UyOi2Fv0MCj0DZwLF-178">
          <mxGeometry x="150" y="225" width="94" height="10" as="geometry" />
        </mxCell>
        <mxCell id="-t0UyOi2Fv0MCj0DZwLF-182" value="" style="line;strokeWidth=2;direction=south;html=1;hachureGap=4;fontFamily=Architects Daughter;fontSource=https://fonts.googleapis.com/css?family=Architects+Daughter;strokeColor=#000000;" vertex="1" parent="-t0UyOi2Fv0MCj0DZwLF-178">
          <mxGeometry x="150" y="230" width="10" height="50" as="geometry" />
        </mxCell>
        <mxCell id="-t0UyOi2Fv0MCj0DZwLF-213" value="" style="line;strokeWidth=2;html=1;perimeter=backbonePerimeter;points=[];outlineConnect=0;hachureGap=4;fontFamily=Architects Daughter;fontSource=https://fonts.googleapis.com/css?family=Architects+Daughter;strokeColor=#000000;" vertex="1" parent="-t0UyOi2Fv0MCj0DZwLF-178">
          <mxGeometry x="375" y="226" width="85" height="10" as="geometry" />
        </mxCell>
        <mxCell id="-t0UyOi2Fv0MCj0DZwLF-181" value="" style="line;strokeWidth=2;direction=south;html=1;hachureGap=4;fontFamily=Architects Daughter;fontSource=https://fonts.googleapis.com/css?family=Architects+Daughter;strokeColor=#000000;" vertex="1" parent="-t0UyOi2Fv0MCj0DZwLF-178">
          <mxGeometry x="150" y="320" width="10" height="30" as="geometry" />
        </mxCell>
        <mxCell id="-t0UyOi2Fv0MCj0DZwLF-180" value="" style="line;strokeWidth=2;direction=south;html=1;hachureGap=4;fontFamily=Architects Daughter;fontSource=https://fonts.googleapis.com/css?family=Architects+Daughter;strokeColor=#000000;" vertex="1" parent="-t0UyOi2Fv0MCj0DZwLF-178">
          <mxGeometry x="305" y="350" width="10" height="30" as="geometry" />
        </mxCell>
        <mxCell id="-t0UyOi2Fv0MCj0DZwLF-210" value="" style="line;strokeWidth=2;html=1;perimeter=backbonePerimeter;points=[];outlineConnect=0;hachureGap=4;fontFamily=Architects Daughter;fontSource=https://fonts.googleapis.com/css?family=Architects+Daughter;strokeColor=#000000;" vertex="1" parent="-t0UyOi2Fv0MCj0DZwLF-178">
          <mxGeometry x="150" y="445" width="99" height="10" as="geometry" />
        </mxCell>
        <mxCell id="-t0UyOi2Fv0MCj0DZwLF-186" value="" style="line;strokeWidth=2;direction=south;html=1;hachureGap=4;fontFamily=Architects Daughter;fontSource=https://fonts.googleapis.com/css?family=Architects+Daughter;strokeColor=#000000;" vertex="1" parent="-t0UyOi2Fv0MCj0DZwLF-178">
          <mxGeometry x="147" y="450" width="10" height="70" as="geometry" />
        </mxCell>
        <mxCell id="-t0UyOi2Fv0MCj0DZwLF-215" value="" style="line;strokeWidth=2;html=1;perimeter=backbonePerimeter;points=[];outlineConnect=0;hachureGap=4;fontFamily=Architects Daughter;fontSource=https://fonts.googleapis.com/css?family=Architects+Daughter;strokeColor=#000000;" vertex="1" parent="-t0UyOi2Fv0MCj0DZwLF-178">
          <mxGeometry x="375" y="445" width="85" height="10" as="geometry" />
        </mxCell>
        <mxCell id="-t0UyOi2Fv0MCj0DZwLF-185" value="" style="line;strokeWidth=2;direction=south;html=1;hachureGap=4;fontFamily=Architects Daughter;fontSource=https://fonts.googleapis.com/css?family=Architects+Daughter;strokeColor=#000000;" vertex="1" parent="-t0UyOi2Fv0MCj0DZwLF-178">
          <mxGeometry x="453" y="450" width="10" height="140" as="geometry" />
        </mxCell>
        <mxCell id="-t0UyOi2Fv0MCj0DZwLF-187" value="" style="line;strokeWidth=2;direction=south;html=1;hachureGap=4;fontFamily=Architects Daughter;fontSource=https://fonts.googleapis.com/css?family=Architects+Daughter;strokeColor=#000000;" vertex="1" parent="-t0UyOi2Fv0MCj0DZwLF-178">
          <mxGeometry x="147" y="562.5" width="10" height="27.5" as="geometry" />
        </mxCell>
        <mxCell id="-t0UyOi2Fv0MCj0DZwLF-253" value="" style="line;strokeWidth=2;direction=south;html=1;hachureGap=4;fontFamily=Architects Daughter;fontSource=https://fonts.googleapis.com/css?family=Architects+Daughter;strokeColor=#000000;" vertex="1" parent="-t0UyOi2Fv0MCj0DZwLF-178">
          <mxGeometry x="305" y="590" width="10" height="30" as="geometry" />
        </mxCell>
        <mxCell id="-t0UyOi2Fv0MCj0DZwLF-209" value="" style="line;strokeWidth=2;html=1;perimeter=backbonePerimeter;points=[];outlineConnect=0;hachureGap=4;fontFamily=Architects Daughter;fontSource=https://fonts.googleapis.com/css?family=Architects+Daughter;strokeColor=#000000;" vertex="1" parent="-t0UyOi2Fv0MCj0DZwLF-178">
          <mxGeometry x="150" y="685" width="94" height="10" as="geometry" />
        </mxCell>
        <mxCell id="-t0UyOi2Fv0MCj0DZwLF-252" value="" style="line;strokeWidth=2;direction=south;html=1;hachureGap=4;fontFamily=Architects Daughter;fontSource=https://fonts.googleapis.com/css?family=Architects+Daughter;strokeColor=#000000;" vertex="1" parent="-t0UyOi2Fv0MCj0DZwLF-178">
          <mxGeometry x="305" y="840" width="10" height="30" as="geometry" />
        </mxCell>
        <mxCell id="-t0UyOi2Fv0MCj0DZwLF-218" value="" style="line;strokeWidth=2;html=1;perimeter=backbonePerimeter;points=[];outlineConnect=0;hachureGap=4;fontFamily=Architects Daughter;fontSource=https://fonts.googleapis.com/css?family=Architects+Daughter;strokeColor=#000000;" vertex="1" parent="-t0UyOi2Fv0MCj0DZwLF-178">
          <mxGeometry x="140" y="935" width="105" height="10" as="geometry" />
        </mxCell>
        <mxCell id="-t0UyOi2Fv0MCj0DZwLF-191" value="" style="line;strokeWidth=2;direction=south;html=1;hachureGap=4;fontFamily=Architects Daughter;fontSource=https://fonts.googleapis.com/css?family=Architects+Daughter;strokeColor=#000000;" vertex="1" parent="-t0UyOi2Fv0MCj0DZwLF-178">
          <mxGeometry x="137" y="939" width="10" height="81" as="geometry" />
        </mxCell>
        <mxCell id="-t0UyOi2Fv0MCj0DZwLF-192" value="" style="line;strokeWidth=2;direction=south;html=1;hachureGap=4;fontFamily=Architects Daughter;fontSource=https://fonts.googleapis.com/css?family=Architects+Daughter;strokeColor=#000000;" vertex="1" parent="-t0UyOi2Fv0MCj0DZwLF-178">
          <mxGeometry x="453" y="939" width="10" height="151" as="geometry" />
        </mxCell>
        <mxCell id="-t0UyOi2Fv0MCj0DZwLF-190" value="" style="line;strokeWidth=2;direction=south;html=1;hachureGap=4;fontFamily=Architects Daughter;fontSource=https://fonts.googleapis.com/css?family=Architects+Daughter;strokeColor=#000000;" vertex="1" parent="-t0UyOi2Fv0MCj0DZwLF-178">
          <mxGeometry x="135" y="1060" width="10" height="30" as="geometry" />
        </mxCell>
        <mxCell id="-t0UyOi2Fv0MCj0DZwLF-196" value="" style="line;strokeWidth=2;direction=south;html=1;hachureGap=4;fontFamily=Architects Daughter;fontSource=https://fonts.googleapis.com/css?family=Architects+Daughter;strokeColor=#000000;" vertex="1" parent="-t0UyOi2Fv0MCj0DZwLF-178">
          <mxGeometry x="305" y="1090" width="10" height="40" as="geometry" />
        </mxCell>
        <mxCell id="-t0UyOi2Fv0MCj0DZwLF-223" value="" style="line;strokeWidth=2;html=1;perimeter=backbonePerimeter;points=[];outlineConnect=0;hachureGap=4;fontFamily=Architects Daughter;fontSource=https://fonts.googleapis.com/css?family=Architects+Daughter;strokeColor=#000000;" vertex="1" parent="-t0UyOi2Fv0MCj0DZwLF-178">
          <mxGeometry x="140" y="1195" width="105" height="10" as="geometry" />
        </mxCell>
        <mxCell id="-t0UyOi2Fv0MCj0DZwLF-222" value="" style="line;strokeWidth=2;html=1;perimeter=backbonePerimeter;points=[];outlineConnect=0;hachureGap=4;fontFamily=Architects Daughter;fontSource=https://fonts.googleapis.com/css?family=Architects+Daughter;strokeColor=#000000;" vertex="1" parent="-t0UyOi2Fv0MCj0DZwLF-178">
          <mxGeometry x="375" y="1195" width="85" height="10" as="geometry" />
        </mxCell>
        <mxCell id="-t0UyOi2Fv0MCj0DZwLF-193" value="" style="line;strokeWidth=2;direction=south;html=1;hachureGap=4;fontFamily=Architects Daughter;fontSource=https://fonts.googleapis.com/css?family=Architects+Daughter;strokeColor=#000000;" vertex="1" parent="-t0UyOi2Fv0MCj0DZwLF-178">
          <mxGeometry x="305" y="1330" width="10" height="30" as="geometry" />
        </mxCell>
        <mxCell id="-t0UyOi2Fv0MCj0DZwLF-224" value="" style="line;strokeWidth=2;html=1;perimeter=backbonePerimeter;points=[];outlineConnect=0;hachureGap=4;fontFamily=Architects Daughter;fontSource=https://fonts.googleapis.com/css?family=Architects+Daughter;strokeColor=#000000;" vertex="1" parent="-t0UyOi2Fv0MCj0DZwLF-178">
          <mxGeometry x="130" y="1425" width="114" height="10" as="geometry" />
        </mxCell>
        <mxCell id="-t0UyOi2Fv0MCj0DZwLF-220" value="" style="line;strokeWidth=2;html=1;perimeter=backbonePerimeter;points=[];outlineConnect=0;hachureGap=4;fontFamily=Architects Daughter;fontSource=https://fonts.googleapis.com/css?family=Architects+Daughter;strokeColor=#000000;" vertex="1" parent="-t0UyOi2Fv0MCj0DZwLF-178">
          <mxGeometry x="375" y="1425" width="85" height="10" as="geometry" />
        </mxCell>
        <mxCell id="-t0UyOi2Fv0MCj0DZwLF-199" value="" style="line;strokeWidth=2;direction=south;html=1;hachureGap=4;fontFamily=Architects Daughter;fontSource=https://fonts.googleapis.com/css?family=Architects+Daughter;strokeColor=#000000;" vertex="1" parent="-t0UyOi2Fv0MCj0DZwLF-178">
          <mxGeometry x="132.5" y="1552.5" width="10" height="27.5" as="geometry" />
        </mxCell>
        <mxCell id="-t0UyOi2Fv0MCj0DZwLF-197" value="" style="line;strokeWidth=2;direction=south;html=1;hachureGap=4;fontFamily=Architects Daughter;fontSource=https://fonts.googleapis.com/css?family=Architects+Daughter;strokeColor=#000000;" vertex="1" parent="-t0UyOi2Fv0MCj0DZwLF-178">
          <mxGeometry x="305" y="1580" width="10" height="20" as="geometry" />
        </mxCell>
        <mxCell id="-t0UyOi2Fv0MCj0DZwLF-228" value="" style="line;strokeWidth=2;html=1;perimeter=backbonePerimeter;points=[];outlineConnect=0;hachureGap=4;fontFamily=Architects Daughter;fontSource=https://fonts.googleapis.com/css?family=Architects+Daughter;strokeColor=#000000;" vertex="1" parent="-t0UyOi2Fv0MCj0DZwLF-178">
          <mxGeometry x="140" y="1665" width="105" height="10" as="geometry" />
        </mxCell>
        <mxCell id="-t0UyOi2Fv0MCj0DZwLF-226" value="" style="line;strokeWidth=2;html=1;perimeter=backbonePerimeter;points=[];outlineConnect=0;hachureGap=4;fontFamily=Architects Daughter;fontSource=https://fonts.googleapis.com/css?family=Architects+Daughter;strokeColor=#000000;" vertex="1" parent="-t0UyOi2Fv0MCj0DZwLF-178">
          <mxGeometry x="375" y="1665" width="85" height="10" as="geometry" />
        </mxCell>
        <mxCell id="-t0UyOi2Fv0MCj0DZwLF-203" value="" style="line;strokeWidth=2;direction=south;html=1;hachureGap=4;fontFamily=Architects Daughter;fontSource=https://fonts.googleapis.com/css?family=Architects+Daughter;strokeColor=#000000;" vertex="1" parent="-t0UyOi2Fv0MCj0DZwLF-178">
          <mxGeometry x="453" y="1670" width="10" height="150" as="geometry" />
        </mxCell>
        <mxCell id="-t0UyOi2Fv0MCj0DZwLF-202" value="" style="line;strokeWidth=2;direction=south;html=1;hachureGap=4;fontFamily=Architects Daughter;fontSource=https://fonts.googleapis.com/css?family=Architects+Daughter;strokeColor=#000000;" vertex="1" parent="-t0UyOi2Fv0MCj0DZwLF-178">
          <mxGeometry x="135" y="1800" width="10" height="20" as="geometry" />
        </mxCell>
        <mxCell id="-t0UyOi2Fv0MCj0DZwLF-204" value="" style="line;strokeWidth=2;direction=south;html=1;hachureGap=4;fontFamily=Architects Daughter;fontSource=https://fonts.googleapis.com/css?family=Architects+Daughter;strokeColor=#000000;" vertex="1" parent="-t0UyOi2Fv0MCj0DZwLF-178">
          <mxGeometry x="305" y="1820" width="10" height="30" as="geometry" />
        </mxCell>
        <mxCell id="-t0UyOi2Fv0MCj0DZwLF-233" value="" style="line;strokeWidth=2;html=1;perimeter=backbonePerimeter;points=[];outlineConnect=0;hachureGap=4;fontFamily=Architects Daughter;fontSource=https://fonts.googleapis.com/css?family=Architects+Daughter;strokeColor=#000000;" vertex="1" parent="-t0UyOi2Fv0MCj0DZwLF-178">
          <mxGeometry x="140" y="1915" width="105" height="10" as="geometry" />
        </mxCell>
        <mxCell id="-t0UyOi2Fv0MCj0DZwLF-234" value="" style="line;strokeWidth=2;html=1;perimeter=backbonePerimeter;points=[];outlineConnect=0;hachureGap=4;fontFamily=Architects Daughter;fontSource=https://fonts.googleapis.com/css?family=Architects+Daughter;strokeColor=#000000;" vertex="1" parent="-t0UyOi2Fv0MCj0DZwLF-178">
          <mxGeometry x="375" y="1915" width="85" height="10" as="geometry" />
        </mxCell>
        <mxCell id="-t0UyOi2Fv0MCj0DZwLF-201" value="" style="line;strokeWidth=2;direction=south;html=1;hachureGap=4;fontFamily=Architects Daughter;fontSource=https://fonts.googleapis.com/css?family=Architects+Daughter;strokeColor=#000000;" vertex="1" parent="-t0UyOi2Fv0MCj0DZwLF-178">
          <mxGeometry x="453" y="1918" width="10" height="142" as="geometry" />
        </mxCell>
        <mxCell id="-t0UyOi2Fv0MCj0DZwLF-205" value="" style="line;strokeWidth=2;direction=south;html=1;hachureGap=4;fontFamily=Architects Daughter;fontSource=https://fonts.googleapis.com/css?family=Architects+Daughter;strokeColor=#000000;" vertex="1" parent="-t0UyOi2Fv0MCj0DZwLF-178">
          <mxGeometry x="137" y="2025" width="10" height="35" as="geometry" />
        </mxCell>
        <mxCell id="-t0UyOi2Fv0MCj0DZwLF-232" value="" style="line;strokeWidth=2;html=1;perimeter=backbonePerimeter;points=[];outlineConnect=0;hachureGap=4;fontFamily=Architects Daughter;fontSource=https://fonts.googleapis.com/css?family=Architects+Daughter;strokeColor=#000000;" vertex="1" parent="-t0UyOi2Fv0MCj0DZwLF-178">
          <mxGeometry x="140" y="2054" width="320" height="10" as="geometry" />
        </mxCell>
        <mxCell id="-t0UyOi2Fv0MCj0DZwLF-206" value="" style="line;strokeWidth=2;direction=south;html=1;hachureGap=4;fontFamily=Architects Daughter;fontSource=https://fonts.googleapis.com/css?family=Architects+Daughter;strokeColor=#000000;" vertex="1" parent="-t0UyOi2Fv0MCj0DZwLF-178">
          <mxGeometry x="305" y="2060" width="10" height="30" as="geometry" />
        </mxCell>
        <mxCell id="-t0UyOi2Fv0MCj0DZwLF-235" value="" style="line;strokeWidth=2;html=1;perimeter=backbonePerimeter;points=[];outlineConnect=0;hachureGap=4;fontFamily=Architects Daughter;fontSource=https://fonts.googleapis.com/css?family=Architects+Daughter;strokeColor=#000000;" vertex="1" parent="-t0UyOi2Fv0MCj0DZwLF-178">
          <mxGeometry x="140" y="2155" width="105" height="10" as="geometry" />
        </mxCell>
        <mxCell id="-t0UyOi2Fv0MCj0DZwLF-266" value="" style="line;strokeWidth=2;direction=south;html=1;hachureGap=4;fontFamily=Architects Daughter;fontSource=https://fonts.googleapis.com/css?family=Architects+Daughter;strokeColor=#000000;" vertex="1" parent="-t0UyOi2Fv0MCj0DZwLF-178">
          <mxGeometry x="137" y="2158" width="10" height="72" as="geometry" />
        </mxCell>
        <mxCell id="-t0UyOi2Fv0MCj0DZwLF-230" value="" style="line;strokeWidth=2;html=1;perimeter=backbonePerimeter;points=[];outlineConnect=0;hachureGap=4;fontFamily=Architects Daughter;fontSource=https://fonts.googleapis.com/css?family=Architects+Daughter;strokeColor=#000000;" vertex="1" parent="-t0UyOi2Fv0MCj0DZwLF-178">
          <mxGeometry x="375" y="2155" width="85" height="10" as="geometry" />
        </mxCell>
        <mxCell id="-t0UyOi2Fv0MCj0DZwLF-264" value="" style="line;strokeWidth=2;direction=south;html=1;hachureGap=4;fontFamily=Architects Daughter;fontSource=https://fonts.googleapis.com/css?family=Architects+Daughter;strokeColor=#000000;" vertex="1" parent="-t0UyOi2Fv0MCj0DZwLF-178">
          <mxGeometry x="453" y="2158" width="10" height="132" as="geometry" />
        </mxCell>
        <mxCell id="-t0UyOi2Fv0MCj0DZwLF-265" value="" style="line;strokeWidth=2;direction=south;html=1;hachureGap=4;fontFamily=Architects Daughter;fontSource=https://fonts.googleapis.com/css?family=Architects+Daughter;strokeColor=#000000;" vertex="1" parent="-t0UyOi2Fv0MCj0DZwLF-178">
          <mxGeometry x="135" y="2270" width="10" height="20" as="geometry" />
        </mxCell>
        <mxCell id="-t0UyOi2Fv0MCj0DZwLF-267" value="" style="line;strokeWidth=2;direction=south;html=1;hachureGap=4;fontFamily=Architects Daughter;fontSource=https://fonts.googleapis.com/css?family=Architects+Daughter;strokeColor=#000000;" vertex="1" parent="-t0UyOi2Fv0MCj0DZwLF-178">
          <mxGeometry x="305" y="2290" width="10" height="30" as="geometry" />
        </mxCell>
        <mxCell id="-t0UyOi2Fv0MCj0DZwLF-237" value="" style="line;strokeWidth=2;html=1;perimeter=backbonePerimeter;points=[];outlineConnect=0;hachureGap=4;fontFamily=Architects Daughter;fontSource=https://fonts.googleapis.com/css?family=Architects+Daughter;strokeColor=#000000;" vertex="1" parent="-t0UyOi2Fv0MCj0DZwLF-178">
          <mxGeometry x="375" y="2385" width="85" height="10" as="geometry" />
        </mxCell>
        <mxCell id="-t0UyOi2Fv0MCj0DZwLF-260" value="" style="line;strokeWidth=2;direction=south;html=1;hachureGap=4;fontFamily=Architects Daughter;fontSource=https://fonts.googleapis.com/css?family=Architects+Daughter;strokeColor=#000000;" vertex="1" parent="-t0UyOi2Fv0MCj0DZwLF-178">
          <mxGeometry x="453" y="2385" width="10" height="135" as="geometry" />
        </mxCell>
        <mxCell id="-t0UyOi2Fv0MCj0DZwLF-262" value="" style="line;strokeWidth=2;direction=south;html=1;hachureGap=4;fontFamily=Architects Daughter;fontSource=https://fonts.googleapis.com/css?family=Architects+Daughter;strokeColor=#000000;" vertex="1" parent="-t0UyOi2Fv0MCj0DZwLF-178">
          <mxGeometry x="137" y="2492.5" width="10" height="27.5" as="geometry" />
        </mxCell>
        <mxCell id="-t0UyOi2Fv0MCj0DZwLF-258" value="" style="line;strokeWidth=2;direction=south;html=1;hachureGap=4;fontFamily=Architects Daughter;fontSource=https://fonts.googleapis.com/css?family=Architects+Daughter;strokeColor=#000000;" vertex="1" parent="-t0UyOi2Fv0MCj0DZwLF-178">
          <mxGeometry x="305" y="2520" width="10" height="40" as="geometry" />
        </mxCell>
        <mxCell id="-t0UyOi2Fv0MCj0DZwLF-241" value="" style="line;strokeWidth=2;html=1;perimeter=backbonePerimeter;points=[];outlineConnect=0;hachureGap=4;fontFamily=Architects Daughter;fontSource=https://fonts.googleapis.com/css?family=Architects+Daughter;strokeColor=#000000;" vertex="1" parent="-t0UyOi2Fv0MCj0DZwLF-178">
          <mxGeometry x="140" y="2625" width="105" height="10" as="geometry" />
        </mxCell>
        <mxCell id="-t0UyOi2Fv0MCj0DZwLF-263" value="" style="line;strokeWidth=2;direction=south;html=1;hachureGap=4;fontFamily=Architects Daughter;fontSource=https://fonts.googleapis.com/css?family=Architects+Daughter;strokeColor=#000000;" vertex="1" parent="-t0UyOi2Fv0MCj0DZwLF-178">
          <mxGeometry x="135" y="2629" width="10" height="61" as="geometry" />
        </mxCell>
        <mxCell id="-t0UyOi2Fv0MCj0DZwLF-240" value="" style="line;strokeWidth=2;html=1;perimeter=backbonePerimeter;points=[];outlineConnect=0;hachureGap=4;fontFamily=Architects Daughter;fontSource=https://fonts.googleapis.com/css?family=Architects+Daughter;strokeColor=#000000;" vertex="1" parent="-t0UyOi2Fv0MCj0DZwLF-178">
          <mxGeometry x="380" y="2625" width="80" height="10" as="geometry" />
        </mxCell>
        <mxCell id="-t0UyOi2Fv0MCj0DZwLF-275" value="" style="line;strokeWidth=2;direction=south;html=1;hachureGap=4;fontFamily=Architects Daughter;fontSource=https://fonts.googleapis.com/css?family=Architects+Daughter;strokeColor=#000000;" vertex="1" parent="-t0UyOi2Fv0MCj0DZwLF-178">
          <mxGeometry x="137" y="2733" width="10" height="27" as="geometry" />
        </mxCell>
        <mxCell id="-t0UyOi2Fv0MCj0DZwLF-268" value="" style="line;strokeWidth=2;direction=south;html=1;hachureGap=4;fontFamily=Architects Daughter;fontSource=https://fonts.googleapis.com/css?family=Architects+Daughter;strokeColor=#000000;" vertex="1" parent="-t0UyOi2Fv0MCj0DZwLF-178">
          <mxGeometry x="305" y="2760" width="10" height="30" as="geometry" />
        </mxCell>
        <mxCell id="-t0UyOi2Fv0MCj0DZwLF-238" value="" style="line;strokeWidth=2;html=1;perimeter=backbonePerimeter;points=[];outlineConnect=0;hachureGap=4;fontFamily=Architects Daughter;fontSource=https://fonts.googleapis.com/css?family=Architects+Daughter;strokeColor=#000000;" vertex="1" parent="-t0UyOi2Fv0MCj0DZwLF-178">
          <mxGeometry x="140" y="2855" width="105" height="10" as="geometry" />
        </mxCell>
        <mxCell id="-t0UyOi2Fv0MCj0DZwLF-274" value="" style="line;strokeWidth=2;direction=south;html=1;hachureGap=4;fontFamily=Architects Daughter;fontSource=https://fonts.googleapis.com/css?family=Architects+Daughter;strokeColor=#000000;" vertex="1" parent="-t0UyOi2Fv0MCj0DZwLF-178">
          <mxGeometry x="135" y="2860" width="10" height="70" as="geometry" />
        </mxCell>
        <mxCell id="-t0UyOi2Fv0MCj0DZwLF-246" value="" style="line;strokeWidth=2;html=1;perimeter=backbonePerimeter;points=[];outlineConnect=0;hachureGap=4;fontFamily=Architects Daughter;fontSource=https://fonts.googleapis.com/css?family=Architects+Daughter;strokeColor=#000000;" vertex="1" parent="-t0UyOi2Fv0MCj0DZwLF-178">
          <mxGeometry x="375" y="2855" width="85" height="10" as="geometry" />
        </mxCell>
        <mxCell id="-t0UyOi2Fv0MCj0DZwLF-269" value="" style="line;strokeWidth=2;direction=south;html=1;hachureGap=4;fontFamily=Architects Daughter;fontSource=https://fonts.googleapis.com/css?family=Architects+Daughter;strokeColor=#000000;" vertex="1" parent="-t0UyOi2Fv0MCj0DZwLF-178">
          <mxGeometry x="453" y="2860" width="10" height="140" as="geometry" />
        </mxCell>
        <mxCell id="-t0UyOi2Fv0MCj0DZwLF-273" value="" style="line;strokeWidth=2;direction=south;html=1;hachureGap=4;fontFamily=Architects Daughter;fontSource=https://fonts.googleapis.com/css?family=Architects+Daughter;strokeColor=#000000;" vertex="1" parent="-t0UyOi2Fv0MCj0DZwLF-178">
          <mxGeometry x="135" y="2970" width="10" height="30" as="geometry" />
        </mxCell>
        <mxCell id="-t0UyOi2Fv0MCj0DZwLF-271" value="" style="line;strokeWidth=2;direction=south;html=1;hachureGap=4;fontFamily=Architects Daughter;fontSource=https://fonts.googleapis.com/css?family=Architects+Daughter;strokeColor=#000000;" vertex="1" parent="-t0UyOi2Fv0MCj0DZwLF-178">
          <mxGeometry x="305" y="3000" width="10" height="30" as="geometry" />
        </mxCell>
        <mxCell id="-t0UyOi2Fv0MCj0DZwLF-244" value="" style="line;strokeWidth=2;html=1;perimeter=backbonePerimeter;points=[];outlineConnect=0;hachureGap=4;fontFamily=Architects Daughter;fontSource=https://fonts.googleapis.com/css?family=Architects+Daughter;strokeColor=#000000;" vertex="1" parent="-t0UyOi2Fv0MCj0DZwLF-178">
          <mxGeometry x="140" y="3095" width="105" height="10" as="geometry" />
        </mxCell>
        <mxCell id="-t0UyOi2Fv0MCj0DZwLF-272" value="" style="line;strokeWidth=2;direction=south;html=1;hachureGap=4;fontFamily=Architects Daughter;fontSource=https://fonts.googleapis.com/css?family=Architects+Daughter;strokeColor=#000000;" vertex="1" parent="-t0UyOi2Fv0MCj0DZwLF-178">
          <mxGeometry x="137" y="3100" width="10" height="70" as="geometry" />
        </mxCell>
        <mxCell id="-t0UyOi2Fv0MCj0DZwLF-270" value="" style="line;strokeWidth=2;direction=south;html=1;hachureGap=4;fontFamily=Architects Daughter;fontSource=https://fonts.googleapis.com/css?family=Architects+Daughter;strokeColor=#000000;" vertex="1" parent="-t0UyOi2Fv0MCj0DZwLF-178">
          <mxGeometry x="453" y="3100" width="10" height="130" as="geometry" />
        </mxCell>
        <mxCell id="-t0UyOi2Fv0MCj0DZwLF-282" value="" style="line;strokeWidth=2;direction=south;html=1;hachureGap=4;fontFamily=Architects Daughter;fontSource=https://fonts.googleapis.com/css?family=Architects+Daughter;strokeColor=#000000;" vertex="1" parent="-t0UyOi2Fv0MCj0DZwLF-178">
          <mxGeometry x="137" y="3210" width="10" height="20" as="geometry" />
        </mxCell>
        <mxCell id="-t0UyOi2Fv0MCj0DZwLF-281" value="" style="line;strokeWidth=2;direction=south;html=1;hachureGap=4;fontFamily=Architects Daughter;fontSource=https://fonts.googleapis.com/css?family=Architects+Daughter;strokeColor=#000000;" vertex="1" parent="-t0UyOi2Fv0MCj0DZwLF-178">
          <mxGeometry x="305" y="3230" width="10" height="40" as="geometry" />
        </mxCell>
        <mxCell id="-t0UyOi2Fv0MCj0DZwLF-247" value="" style="line;strokeWidth=2;html=1;perimeter=backbonePerimeter;points=[];outlineConnect=0;hachureGap=4;fontFamily=Architects Daughter;fontSource=https://fonts.googleapis.com/css?family=Architects+Daughter;strokeColor=#000000;" vertex="1" parent="-t0UyOi2Fv0MCj0DZwLF-178">
          <mxGeometry x="140" y="3335" width="105" height="10" as="geometry" />
        </mxCell>
        <mxCell id="-t0UyOi2Fv0MCj0DZwLF-248" value="" style="line;strokeWidth=2;html=1;perimeter=backbonePerimeter;points=[];outlineConnect=0;hachureGap=4;fontFamily=Architects Daughter;fontSource=https://fonts.googleapis.com/css?family=Architects+Daughter;strokeColor=#000000;" vertex="1" parent="-t0UyOi2Fv0MCj0DZwLF-178">
          <mxGeometry x="375" y="3335" width="85" height="10" as="geometry" />
        </mxCell>
        <mxCell id="-t0UyOi2Fv0MCj0DZwLF-250" value="" style="line;strokeWidth=2;html=1;perimeter=backbonePerimeter;points=[];outlineConnect=0;hachureGap=4;fontFamily=Architects Daughter;fontSource=https://fonts.googleapis.com/css?family=Architects+Daughter;strokeColor=#000000;" vertex="1" parent="-t0UyOi2Fv0MCj0DZwLF-178">
          <mxGeometry x="140" y="3575" width="105" height="10" as="geometry" />
        </mxCell>
        <mxCell id="-t0UyOi2Fv0MCj0DZwLF-249" value="" style="line;strokeWidth=2;html=1;perimeter=backbonePerimeter;points=[];outlineConnect=0;hachureGap=4;fontFamily=Architects Daughter;fontSource=https://fonts.googleapis.com/css?family=Architects+Daughter;strokeColor=#000000;" vertex="1" parent="-t0UyOi2Fv0MCj0DZwLF-178">
          <mxGeometry x="375" y="3575" width="95" height="10" as="geometry" />
        </mxCell>
        <mxCell id="-t0UyOi2Fv0MCj0DZwLF-279" value="" style="line;strokeWidth=2;direction=south;html=1;hachureGap=4;fontFamily=Architects Daughter;fontSource=https://fonts.googleapis.com/css?family=Architects+Daughter;strokeColor=#000000;" vertex="1" parent="-t0UyOi2Fv0MCj0DZwLF-178">
          <mxGeometry x="137" y="3442.5" width="10" height="37.5" as="geometry" />
        </mxCell>
        <mxCell id="-t0UyOi2Fv0MCj0DZwLF-251" value="" style="line;strokeWidth=2;html=1;perimeter=backbonePerimeter;points=[];outlineConnect=0;hachureGap=4;fontFamily=Architects Daughter;fontSource=https://fonts.googleapis.com/css?family=Architects+Daughter;strokeColor=#000000;" vertex="1" parent="-t0UyOi2Fv0MCj0DZwLF-178">
          <mxGeometry x="140" y="3475" width="320" height="10" as="geometry" />
        </mxCell>
        <mxCell id="-t0UyOi2Fv0MCj0DZwLF-276" value="" style="line;strokeWidth=2;direction=south;html=1;hachureGap=4;fontFamily=Architects Daughter;fontSource=https://fonts.googleapis.com/css?family=Architects+Daughter;strokeColor=#000000;" vertex="1" parent="-t0UyOi2Fv0MCj0DZwLF-178">
          <mxGeometry x="305" y="3480" width="10" height="30" as="geometry" />
        </mxCell>
        <mxCell id="-t0UyOi2Fv0MCj0DZwLF-287" value="" style="line;strokeWidth=2;direction=south;html=1;hachureGap=4;fontFamily=Architects Daughter;fontSource=https://fonts.googleapis.com/css?family=Architects+Daughter;strokeColor=#000000;" vertex="1" parent="-t0UyOi2Fv0MCj0DZwLF-178">
          <mxGeometry x="137" y="3579" width="10" height="71" as="geometry" />
        </mxCell>
        <mxCell id="-t0UyOi2Fv0MCj0DZwLF-286" value="" style="line;strokeWidth=2;direction=south;html=1;hachureGap=4;fontFamily=Architects Daughter;fontSource=https://fonts.googleapis.com/css?family=Architects+Daughter;strokeColor=#000000;" vertex="1" parent="-t0UyOi2Fv0MCj0DZwLF-178">
          <mxGeometry x="462" y="3579" width="10" height="141" as="geometry" />
        </mxCell>
        <mxCell id="-t0UyOi2Fv0MCj0DZwLF-278" value="" style="line;strokeWidth=2;direction=south;html=1;hachureGap=4;fontFamily=Architects Daughter;fontSource=https://fonts.googleapis.com/css?family=Architects+Daughter;strokeColor=#000000;" vertex="1" parent="-t0UyOi2Fv0MCj0DZwLF-178">
          <mxGeometry x="135" y="3690" width="10" height="30" as="geometry" />
        </mxCell>
        <mxCell id="-t0UyOi2Fv0MCj0DZwLF-283" value="" style="line;strokeWidth=2;direction=south;html=1;hachureGap=4;fontFamily=Architects Daughter;fontSource=https://fonts.googleapis.com/css?family=Architects+Daughter;strokeColor=#000000;" vertex="1" parent="-t0UyOi2Fv0MCj0DZwLF-178">
          <mxGeometry x="305" y="3720" width="10" height="30" as="geometry" />
        </mxCell>
        <mxCell id="-t0UyOi2Fv0MCj0DZwLF-306" value="" style="line;strokeWidth=2;html=1;perimeter=backbonePerimeter;points=[];outlineConnect=0;hachureGap=4;fontFamily=Architects Daughter;fontSource=https://fonts.googleapis.com/css?family=Architects+Daughter;strokeColor=#000000;" vertex="1" parent="-t0UyOi2Fv0MCj0DZwLF-178">
          <mxGeometry x="140" y="3815" width="104" height="10" as="geometry" />
        </mxCell>
        <mxCell id="-t0UyOi2Fv0MCj0DZwLF-284" value="" style="line;strokeWidth=2;direction=south;html=1;hachureGap=4;fontFamily=Architects Daughter;fontSource=https://fonts.googleapis.com/css?family=Architects+Daughter;strokeColor=#000000;" vertex="1" parent="-t0UyOi2Fv0MCj0DZwLF-178">
          <mxGeometry x="135" y="3820" width="10" height="50" as="geometry" />
        </mxCell>
        <mxCell id="-t0UyOi2Fv0MCj0DZwLF-299" value="" style="line;strokeWidth=2;html=1;perimeter=backbonePerimeter;points=[];outlineConnect=0;hachureGap=4;fontFamily=Architects Daughter;fontSource=https://fonts.googleapis.com/css?family=Architects+Daughter;strokeColor=#000000;" vertex="1" parent="-t0UyOi2Fv0MCj0DZwLF-178">
          <mxGeometry x="375" y="3815" width="95" height="10" as="geometry" />
        </mxCell>
        <mxCell id="-t0UyOi2Fv0MCj0DZwLF-285" value="" style="line;strokeWidth=2;direction=south;html=1;hachureGap=4;fontFamily=Architects Daughter;fontSource=https://fonts.googleapis.com/css?family=Architects+Daughter;strokeColor=#000000;" vertex="1" parent="-t0UyOi2Fv0MCj0DZwLF-178">
          <mxGeometry x="463" y="3820" width="10" height="120" as="geometry" />
        </mxCell>
        <mxCell id="-t0UyOi2Fv0MCj0DZwLF-277" value="" style="line;strokeWidth=2;direction=south;html=1;hachureGap=4;fontFamily=Architects Daughter;fontSource=https://fonts.googleapis.com/css?family=Architects+Daughter;strokeColor=#000000;" vertex="1" parent="-t0UyOi2Fv0MCj0DZwLF-178">
          <mxGeometry x="135" y="3910" width="10" height="30" as="geometry" />
        </mxCell>
        <mxCell id="-t0UyOi2Fv0MCj0DZwLF-291" value="" style="line;strokeWidth=2;direction=south;html=1;hachureGap=4;fontFamily=Architects Daughter;fontSource=https://fonts.googleapis.com/css?family=Architects+Daughter;strokeColor=#000000;" vertex="1" parent="-t0UyOi2Fv0MCj0DZwLF-178">
          <mxGeometry x="305" y="3940" width="10" height="20" as="geometry" />
        </mxCell>
        <mxCell id="-t0UyOi2Fv0MCj0DZwLF-297" value="" style="line;strokeWidth=2;html=1;perimeter=backbonePerimeter;points=[];outlineConnect=0;hachureGap=4;fontFamily=Architects Daughter;fontSource=https://fonts.googleapis.com/css?family=Architects+Daughter;strokeColor=#000000;" vertex="1" parent="-t0UyOi2Fv0MCj0DZwLF-178">
          <mxGeometry x="140" y="4025" width="105" height="10" as="geometry" />
        </mxCell>
        <mxCell id="-t0UyOi2Fv0MCj0DZwLF-290" value="" style="line;strokeWidth=2;direction=south;html=1;hachureGap=4;fontFamily=Architects Daughter;fontSource=https://fonts.googleapis.com/css?family=Architects+Daughter;strokeColor=#000000;" vertex="1" parent="-t0UyOi2Fv0MCj0DZwLF-178">
          <mxGeometry x="137" y="4030" width="10" height="50" as="geometry" />
        </mxCell>
        <mxCell id="-t0UyOi2Fv0MCj0DZwLF-296" value="" style="line;strokeWidth=2;html=1;perimeter=backbonePerimeter;points=[];outlineConnect=0;hachureGap=4;fontFamily=Architects Daughter;fontSource=https://fonts.googleapis.com/css?family=Architects+Daughter;strokeColor=#000000;" vertex="1" parent="-t0UyOi2Fv0MCj0DZwLF-178">
          <mxGeometry x="375" y="4025" width="95" height="10" as="geometry" />
        </mxCell>
        <mxCell id="-t0UyOi2Fv0MCj0DZwLF-289" value="" style="line;strokeWidth=2;direction=south;html=1;hachureGap=4;fontFamily=Architects Daughter;fontSource=https://fonts.googleapis.com/css?family=Architects+Daughter;strokeColor=#000000;" vertex="1" parent="-t0UyOi2Fv0MCj0DZwLF-178">
          <mxGeometry x="463" y="4030" width="10" height="120" as="geometry" />
        </mxCell>
        <mxCell id="-t0UyOi2Fv0MCj0DZwLF-294" value="" style="line;strokeWidth=2;direction=south;html=1;hachureGap=4;fontFamily=Architects Daughter;fontSource=https://fonts.googleapis.com/css?family=Architects+Daughter;strokeColor=#000000;" vertex="1" parent="-t0UyOi2Fv0MCj0DZwLF-178">
          <mxGeometry x="137" y="4115" width="10" height="35" as="geometry" />
        </mxCell>
        <mxCell id="-t0UyOi2Fv0MCj0DZwLF-292" value="" style="line;strokeWidth=2;direction=south;html=1;hachureGap=4;fontFamily=Architects Daughter;fontSource=https://fonts.googleapis.com/css?family=Architects+Daughter;strokeColor=#000000;" vertex="1" parent="-t0UyOi2Fv0MCj0DZwLF-178">
          <mxGeometry x="305" y="4150" width="10" height="30" as="geometry" />
        </mxCell>
        <mxCell id="-t0UyOi2Fv0MCj0DZwLF-302" value="" style="line;strokeWidth=2;html=1;perimeter=backbonePerimeter;points=[];outlineConnect=0;hachureGap=4;fontFamily=Architects Daughter;fontSource=https://fonts.googleapis.com/css?family=Architects+Daughter;strokeColor=#000000;" vertex="1" parent="-t0UyOi2Fv0MCj0DZwLF-178">
          <mxGeometry x="140" y="4245" width="105" height="10" as="geometry" />
        </mxCell>
        <mxCell id="-t0UyOi2Fv0MCj0DZwLF-305" value="" style="line;strokeWidth=2;html=1;perimeter=backbonePerimeter;points=[];outlineConnect=0;hachureGap=4;fontFamily=Architects Daughter;fontSource=https://fonts.googleapis.com/css?family=Architects+Daughter;strokeColor=#000000;" vertex="1" parent="-t0UyOi2Fv0MCj0DZwLF-178">
          <mxGeometry x="375" y="4245" width="95" height="10" as="geometry" />
        </mxCell>
        <mxCell id="-t0UyOi2Fv0MCj0DZwLF-350" value="" style="line;strokeWidth=2;direction=south;html=1;hachureGap=4;fontFamily=Architects Daughter;fontSource=https://fonts.googleapis.com/css?family=Architects+Daughter;strokeColor=#000000;" vertex="1" parent="-t0UyOi2Fv0MCj0DZwLF-178">
          <mxGeometry x="463" y="4249" width="10" height="131" as="geometry" />
        </mxCell>
        <mxCell id="-t0UyOi2Fv0MCj0DZwLF-348" value="" style="line;strokeWidth=2;direction=south;html=1;hachureGap=4;fontFamily=Architects Daughter;fontSource=https://fonts.googleapis.com/css?family=Architects+Daughter;strokeColor=#000000;" vertex="1" parent="-t0UyOi2Fv0MCj0DZwLF-178">
          <mxGeometry x="137" y="4352.5" width="10" height="27.5" as="geometry" />
        </mxCell>
        <mxCell id="-t0UyOi2Fv0MCj0DZwLF-349" value="" style="line;strokeWidth=2;direction=south;html=1;hachureGap=4;fontFamily=Architects Daughter;fontSource=https://fonts.googleapis.com/css?family=Architects+Daughter;strokeColor=#000000;" vertex="1" parent="-t0UyOi2Fv0MCj0DZwLF-178">
          <mxGeometry x="305" y="4380" width="10" height="30" as="geometry" />
        </mxCell>
        <mxCell id="-t0UyOi2Fv0MCj0DZwLF-301" value="" style="line;strokeWidth=2;html=1;perimeter=backbonePerimeter;points=[];outlineConnect=0;hachureGap=4;fontFamily=Architects Daughter;fontSource=https://fonts.googleapis.com/css?family=Architects+Daughter;strokeColor=#000000;" vertex="1" parent="-t0UyOi2Fv0MCj0DZwLF-178">
          <mxGeometry x="140" y="4475" width="109" height="10" as="geometry" />
        </mxCell>
        <mxCell id="-t0UyOi2Fv0MCj0DZwLF-300" value="" style="line;strokeWidth=2;html=1;perimeter=backbonePerimeter;points=[];outlineConnect=0;hachureGap=4;fontFamily=Architects Daughter;fontSource=https://fonts.googleapis.com/css?family=Architects+Daughter;strokeColor=#000000;" vertex="1" parent="-t0UyOi2Fv0MCj0DZwLF-178">
          <mxGeometry x="375" y="4475" width="95" height="10" as="geometry" />
        </mxCell>
        <mxCell id="-t0UyOi2Fv0MCj0DZwLF-347" value="" style="line;strokeWidth=2;direction=south;html=1;hachureGap=4;fontFamily=Architects Daughter;fontSource=https://fonts.googleapis.com/css?family=Architects+Daughter;strokeColor=#000000;" vertex="1" parent="-t0UyOi2Fv0MCj0DZwLF-178">
          <mxGeometry x="463" y="4478" width="10" height="142" as="geometry" />
        </mxCell>
        <mxCell id="-t0UyOi2Fv0MCj0DZwLF-346" value="" style="line;strokeWidth=2;direction=south;html=1;hachureGap=4;fontFamily=Architects Daughter;fontSource=https://fonts.googleapis.com/css?family=Architects+Daughter;strokeColor=#000000;" vertex="1" parent="-t0UyOi2Fv0MCj0DZwLF-178">
          <mxGeometry x="137" y="4590" width="10" height="30" as="geometry" />
        </mxCell>
        <mxCell id="-t0UyOi2Fv0MCj0DZwLF-319" value="" style="line;strokeWidth=2;html=1;perimeter=backbonePerimeter;points=[];outlineConnect=0;hachureGap=4;fontFamily=Architects Daughter;fontSource=https://fonts.googleapis.com/css?family=Architects+Daughter;strokeColor=#000000;" vertex="1" parent="-t0UyOi2Fv0MCj0DZwLF-178">
          <mxGeometry x="140" y="4613" width="330" height="10" as="geometry" />
        </mxCell>
        <mxCell id="-t0UyOi2Fv0MCj0DZwLF-351" value="" style="line;strokeWidth=2;direction=south;html=1;hachureGap=4;fontFamily=Architects Daughter;fontSource=https://fonts.googleapis.com/css?family=Architects+Daughter;strokeColor=#000000;" vertex="1" parent="-t0UyOi2Fv0MCj0DZwLF-178">
          <mxGeometry x="305" y="4620" width="10" height="30" as="geometry" />
        </mxCell>
        <mxCell id="-t0UyOi2Fv0MCj0DZwLF-318" value="" style="line;strokeWidth=2;html=1;perimeter=backbonePerimeter;points=[];outlineConnect=0;hachureGap=4;fontFamily=Architects Daughter;fontSource=https://fonts.googleapis.com/css?family=Architects+Daughter;strokeColor=#000000;" vertex="1" parent="-t0UyOi2Fv0MCj0DZwLF-178">
          <mxGeometry x="140" y="4715" width="104" height="10" as="geometry" />
        </mxCell>
        <mxCell id="-t0UyOi2Fv0MCj0DZwLF-317" value="" style="line;strokeWidth=2;html=1;perimeter=backbonePerimeter;points=[];outlineConnect=0;hachureGap=4;fontFamily=Architects Daughter;fontSource=https://fonts.googleapis.com/css?family=Architects+Daughter;strokeColor=#000000;" vertex="1" parent="-t0UyOi2Fv0MCj0DZwLF-178">
          <mxGeometry x="375" y="4715" width="95" height="10" as="geometry" />
        </mxCell>
        <mxCell id="-t0UyOi2Fv0MCj0DZwLF-352" value="" style="line;strokeWidth=2;direction=south;html=1;hachureGap=4;fontFamily=Architects Daughter;fontSource=https://fonts.googleapis.com/css?family=Architects+Daughter;strokeColor=#000000;" vertex="1" parent="-t0UyOi2Fv0MCj0DZwLF-178">
          <mxGeometry x="137" y="4720" width="10" height="70" as="geometry" />
        </mxCell>
        <mxCell id="-t0UyOi2Fv0MCj0DZwLF-356" value="" style="line;strokeWidth=2;direction=south;html=1;hachureGap=4;fontFamily=Architects Daughter;fontSource=https://fonts.googleapis.com/css?family=Architects+Daughter;strokeColor=#000000;" vertex="1" parent="-t0UyOi2Fv0MCj0DZwLF-178">
          <mxGeometry x="463" y="4720" width="10" height="150" as="geometry" />
        </mxCell>
        <mxCell id="-t0UyOi2Fv0MCj0DZwLF-358" value="" style="line;strokeWidth=2;direction=south;html=1;hachureGap=4;fontFamily=Architects Daughter;fontSource=https://fonts.googleapis.com/css?family=Architects+Daughter;strokeColor=#000000;" vertex="1" parent="-t0UyOi2Fv0MCj0DZwLF-178">
          <mxGeometry x="135" y="4830" width="10" height="40" as="geometry" />
        </mxCell>
        <mxCell id="-t0UyOi2Fv0MCj0DZwLF-316" value="" style="line;strokeWidth=2;html=1;perimeter=backbonePerimeter;points=[];outlineConnect=0;hachureGap=4;fontFamily=Architects Daughter;fontSource=https://fonts.googleapis.com/css?family=Architects+Daughter;strokeColor=#000000;" vertex="1" parent="-t0UyOi2Fv0MCj0DZwLF-178">
          <mxGeometry x="140" y="4860" width="330" height="10" as="geometry" />
        </mxCell>
        <mxCell id="-t0UyOi2Fv0MCj0DZwLF-355" value="" style="line;strokeWidth=2;direction=south;html=1;hachureGap=4;fontFamily=Architects Daughter;fontSource=https://fonts.googleapis.com/css?family=Architects+Daughter;strokeColor=#000000;" vertex="1" parent="-t0UyOi2Fv0MCj0DZwLF-178">
          <mxGeometry x="305" y="4940" width="10" height="30" as="geometry" />
        </mxCell>
        <mxCell id="-t0UyOi2Fv0MCj0DZwLF-370" value="" style="line;strokeWidth=2;direction=south;html=1;hachureGap=4;fontFamily=Architects Daughter;fontSource=https://fonts.googleapis.com/css?family=Architects+Daughter;strokeColor=#000000;" vertex="1" parent="-t0UyOi2Fv0MCj0DZwLF-178">
          <mxGeometry x="305" y="5051" width="10" height="39" as="geometry" />
        </mxCell>
        <mxCell id="-t0UyOi2Fv0MCj0DZwLF-184" value="" style="line;strokeWidth=2;direction=south;html=1;hachureGap=4;fontFamily=Architects Daughter;fontSource=https://fonts.googleapis.com/css?family=Architects+Daughter;strokeColor=#000000;" vertex="1" parent="1">
          <mxGeometry x="363" y="442" width="10" height="118" as="geometry" />
        </mxCell>
        <mxCell id="-t0UyOi2Fv0MCj0DZwLF-188" value="" style="line;strokeWidth=2;direction=south;html=1;hachureGap=4;fontFamily=Architects Daughter;fontSource=https://fonts.googleapis.com/css?family=Architects+Daughter;strokeColor=#000000;" vertex="1" parent="1">
          <mxGeometry x="45" y="1409" width="10" height="71" as="geometry" />
        </mxCell>
        <mxCell id="-t0UyOi2Fv0MCj0DZwLF-189" value="" style="line;strokeWidth=2;direction=south;html=1;hachureGap=4;fontFamily=Architects Daughter;fontSource=https://fonts.googleapis.com/css?family=Architects+Daughter;strokeColor=#000000;" vertex="1" parent="1">
          <mxGeometry x="363" y="1408" width="10" height="132" as="geometry" />
        </mxCell>
        <mxCell id="-t0UyOi2Fv0MCj0DZwLF-194" value="" style="line;strokeWidth=2;direction=south;html=1;hachureGap=4;fontFamily=Architects Daughter;fontSource=https://fonts.googleapis.com/css?family=Architects+Daughter;strokeColor=#000000;" vertex="1" parent="1">
          <mxGeometry x="40" y="1638" width="10" height="82" as="geometry" />
        </mxCell>
        <mxCell id="-t0UyOi2Fv0MCj0DZwLF-195" value="" style="line;strokeWidth=2;direction=south;html=1;hachureGap=4;fontFamily=Architects Daughter;fontSource=https://fonts.googleapis.com/css?family=Architects+Daughter;strokeColor=#000000;" vertex="1" parent="1">
          <mxGeometry x="43" y="1520" width="10" height="20" as="geometry" />
        </mxCell>
        <mxCell id="-t0UyOi2Fv0MCj0DZwLF-198" value="" style="line;strokeWidth=2;direction=south;html=1;hachureGap=4;fontFamily=Architects Daughter;fontSource=https://fonts.googleapis.com/css?family=Architects+Daughter;strokeColor=#000000;" vertex="1" parent="1">
          <mxGeometry x="45" y="1879" width="10" height="91" as="geometry" />
        </mxCell>
        <mxCell id="-t0UyOi2Fv0MCj0DZwLF-200" value="" style="line;strokeWidth=2;direction=south;html=1;hachureGap=4;fontFamily=Architects Daughter;fontSource=https://fonts.googleapis.com/css?family=Architects+Daughter;strokeColor=#000000;" vertex="1" parent="1">
          <mxGeometry x="364" y="1640" width="10" height="150" as="geometry" />
        </mxCell>
        <mxCell id="-t0UyOi2Fv0MCj0DZwLF-207" value="" style="line;strokeWidth=2;direction=south;html=1;hachureGap=4;fontFamily=Architects Daughter;fontSource=https://fonts.googleapis.com/css?family=Architects+Daughter;strokeColor=#000000;" vertex="1" parent="1">
          <mxGeometry x="46" y="2128" width="10" height="72" as="geometry" />
        </mxCell>
        <mxCell id="-t0UyOi2Fv0MCj0DZwLF-208" value="" style="line;strokeWidth=2;html=1;perimeter=backbonePerimeter;points=[];outlineConnect=0;hachureGap=4;fontFamily=Architects Daughter;fontSource=https://fonts.googleapis.com/css?family=Architects+Daughter;strokeColor=#000000;" vertex="1" parent="1">
          <mxGeometry x="57" y="1045" width="313" height="10" as="geometry" />
        </mxCell>
        <mxCell id="-t0UyOi2Fv0MCj0DZwLF-212" value="" style="line;strokeWidth=2;html=1;perimeter=backbonePerimeter;points=[];outlineConnect=0;hachureGap=4;fontFamily=Architects Daughter;fontSource=https://fonts.googleapis.com/css?family=Architects+Daughter;strokeColor=#000000;" vertex="1" parent="1">
          <mxGeometry x="64" y="554" width="306" height="10" as="geometry" />
        </mxCell>
        <mxCell id="-t0UyOi2Fv0MCj0DZwLF-214" value="" style="line;strokeWidth=2;html=1;perimeter=backbonePerimeter;points=[];outlineConnect=0;hachureGap=4;fontFamily=Architects Daughter;fontSource=https://fonts.googleapis.com/css?family=Architects+Daughter;strokeColor=#000000;" vertex="1" parent="1">
          <mxGeometry x="60" y="796" width="310" height="10" as="geometry" />
        </mxCell>
        <mxCell id="-t0UyOi2Fv0MCj0DZwLF-216" value="" style="line;strokeWidth=2;html=1;perimeter=backbonePerimeter;points=[];outlineConnect=0;hachureGap=4;fontFamily=Architects Daughter;fontSource=https://fonts.googleapis.com/css?family=Architects+Daughter;strokeColor=#000000;" vertex="1" parent="1">
          <mxGeometry x="285" y="895" width="85" height="10" as="geometry" />
        </mxCell>
        <mxCell id="-t0UyOi2Fv0MCj0DZwLF-217" value="" style="line;strokeWidth=2;html=1;perimeter=backbonePerimeter;points=[];outlineConnect=0;hachureGap=4;fontFamily=Architects Daughter;fontSource=https://fonts.googleapis.com/css?family=Architects+Daughter;strokeColor=#000000;" vertex="1" parent="1">
          <mxGeometry x="285" y="1146" width="85" height="10" as="geometry" />
        </mxCell>
        <mxCell id="-t0UyOi2Fv0MCj0DZwLF-219" value="" style="line;strokeWidth=2;html=1;perimeter=backbonePerimeter;points=[];outlineConnect=0;hachureGap=4;fontFamily=Architects Daughter;fontSource=https://fonts.googleapis.com/css?family=Architects+Daughter;strokeColor=#000000;" vertex="1" parent="1">
          <mxGeometry x="50" y="1293" width="320" height="10" as="geometry" />
        </mxCell>
        <mxCell id="-t0UyOi2Fv0MCj0DZwLF-221" value="" style="line;strokeWidth=2;html=1;perimeter=backbonePerimeter;points=[];outlineConnect=0;hachureGap=4;fontFamily=Architects Daughter;fontSource=https://fonts.googleapis.com/css?family=Architects+Daughter;strokeColor=#000000;" vertex="1" parent="1">
          <mxGeometry x="45" y="1535" width="325" height="10" as="geometry" />
        </mxCell>
        <mxCell id="-t0UyOi2Fv0MCj0DZwLF-225" value="" style="line;strokeWidth=2;html=1;perimeter=backbonePerimeter;points=[];outlineConnect=0;hachureGap=4;fontFamily=Architects Daughter;fontSource=https://fonts.googleapis.com/css?family=Architects+Daughter;strokeColor=#000000;" vertex="1" parent="1">
          <mxGeometry x="47" y="1784" width="323" height="10" as="geometry" />
        </mxCell>
        <mxCell id="-t0UyOi2Fv0MCj0DZwLF-227" value="" style="line;strokeWidth=2;html=1;perimeter=backbonePerimeter;points=[];outlineConnect=0;hachureGap=4;fontFamily=Architects Daughter;fontSource=https://fonts.googleapis.com/css?family=Architects+Daughter;strokeColor=#000000;" vertex="1" parent="1">
          <mxGeometry x="48" y="2025" width="322" height="10" as="geometry" />
        </mxCell>
        <mxCell id="-t0UyOi2Fv0MCj0DZwLF-229" value="" style="line;strokeWidth=2;html=1;perimeter=backbonePerimeter;points=[];outlineConnect=0;hachureGap=4;fontFamily=Architects Daughter;fontSource=https://fonts.googleapis.com/css?family=Architects+Daughter;strokeColor=#000000;" vertex="1" parent="1">
          <mxGeometry x="50" y="2595" width="105" height="10" as="geometry" />
        </mxCell>
        <mxCell id="-t0UyOi2Fv0MCj0DZwLF-231" value="" style="line;strokeWidth=2;html=1;perimeter=backbonePerimeter;points=[];outlineConnect=0;hachureGap=4;fontFamily=Architects Daughter;fontSource=https://fonts.googleapis.com/css?family=Architects+Daughter;strokeColor=#000000;" vertex="1" parent="1">
          <mxGeometry x="50" y="2964" width="320" height="10" as="geometry" />
        </mxCell>
        <mxCell id="-t0UyOi2Fv0MCj0DZwLF-236" value="" style="line;strokeWidth=2;html=1;perimeter=backbonePerimeter;points=[];outlineConnect=0;hachureGap=4;fontFamily=Architects Daughter;fontSource=https://fonts.googleapis.com/css?family=Architects+Daughter;strokeColor=#000000;" vertex="1" parent="1">
          <mxGeometry x="49" y="2496" width="321" height="10" as="geometry" />
        </mxCell>
        <mxCell id="-t0UyOi2Fv0MCj0DZwLF-239" value="" style="line;strokeWidth=2;html=1;perimeter=backbonePerimeter;points=[];outlineConnect=0;hachureGap=4;fontFamily=Architects Daughter;fontSource=https://fonts.googleapis.com/css?family=Architects+Daughter;strokeColor=#000000;" vertex="1" parent="1">
          <mxGeometry x="50" y="2726" width="320" height="10" as="geometry" />
        </mxCell>
        <mxCell id="-t0UyOi2Fv0MCj0DZwLF-242" value="" style="line;strokeWidth=2;html=1;perimeter=backbonePerimeter;points=[];outlineConnect=0;hachureGap=4;fontFamily=Architects Daughter;fontSource=https://fonts.googleapis.com/css?family=Architects+Daughter;strokeColor=#000000;" vertex="1" parent="1">
          <mxGeometry x="285" y="3305" width="85" height="10" as="geometry" />
        </mxCell>
        <mxCell id="-t0UyOi2Fv0MCj0DZwLF-243" value="" style="line;strokeWidth=2;html=1;perimeter=backbonePerimeter;points=[];outlineConnect=0;hachureGap=4;fontFamily=Architects Daughter;fontSource=https://fonts.googleapis.com/css?family=Architects+Daughter;strokeColor=#000000;" vertex="1" parent="1">
          <mxGeometry x="47" y="3202" width="323" height="10" as="geometry" />
        </mxCell>
        <mxCell id="-t0UyOi2Fv0MCj0DZwLF-245" value="" style="line;strokeWidth=2;html=1;perimeter=backbonePerimeter;points=[];outlineConnect=0;hachureGap=4;fontFamily=Architects Daughter;fontSource=https://fonts.googleapis.com/css?family=Architects+Daughter;strokeColor=#000000;" vertex="1" parent="1">
          <mxGeometry x="50" y="3434" width="320" height="10" as="geometry" />
        </mxCell>
        <mxCell id="-t0UyOi2Fv0MCj0DZwLF-254" value="" style="line;strokeWidth=2;direction=south;html=1;hachureGap=4;fontFamily=Architects Daughter;fontSource=https://fonts.googleapis.com/css?family=Architects+Daughter;strokeColor=#000000;" vertex="1" parent="1">
          <mxGeometry x="55" y="1016" width="10" height="34" as="geometry" />
        </mxCell>
        <mxCell id="-t0UyOi2Fv0MCj0DZwLF-255" value="" style="line;strokeWidth=2;direction=south;html=1;hachureGap=4;fontFamily=Architects Daughter;fontSource=https://fonts.googleapis.com/css?family=Architects+Daughter;strokeColor=#000000;" vertex="1" parent="1">
          <mxGeometry x="363" y="899" width="10" height="151" as="geometry" />
        </mxCell>
        <mxCell id="-t0UyOi2Fv0MCj0DZwLF-256" value="" style="line;strokeWidth=2;direction=south;html=1;hachureGap=4;fontFamily=Architects Daughter;fontSource=https://fonts.googleapis.com/css?family=Architects+Daughter;strokeColor=#000000;" vertex="1" parent="1">
          <mxGeometry x="55" y="899" width="10" height="81" as="geometry" />
        </mxCell>
        <mxCell id="-t0UyOi2Fv0MCj0DZwLF-259" value="" style="line;strokeWidth=2;direction=south;html=1;hachureGap=4;fontFamily=Architects Daughter;fontSource=https://fonts.googleapis.com/css?family=Architects+Daughter;strokeColor=#000000;" vertex="1" parent="1">
          <mxGeometry x="366" y="2839" width="10" height="131" as="geometry" />
        </mxCell>
        <mxCell id="-t0UyOi2Fv0MCj0DZwLF-261" value="" style="line;strokeWidth=2;direction=south;html=1;hachureGap=4;fontFamily=Architects Daughter;fontSource=https://fonts.googleapis.com/css?family=Architects+Daughter;strokeColor=#000000;" vertex="1" parent="1">
          <mxGeometry x="45" y="2598" width="10" height="62" as="geometry" />
        </mxCell>
        <mxCell id="-t0UyOi2Fv0MCj0DZwLF-280" value="" style="line;strokeWidth=2;direction=south;html=1;hachureGap=4;fontFamily=Architects Daughter;fontSource=https://fonts.googleapis.com/css?family=Architects+Daughter;strokeColor=#000000;" vertex="1" parent="1">
          <mxGeometry x="47" y="3548" width="10" height="62" as="geometry" />
        </mxCell>
        <mxCell id="-t0UyOi2Fv0MCj0DZwLF-288" value="" style="line;strokeWidth=2;direction=south;html=1;hachureGap=4;fontFamily=Architects Daughter;fontSource=https://fonts.googleapis.com/css?family=Architects+Daughter;strokeColor=#000000;" vertex="1" parent="1">
          <mxGeometry x="364" y="3550" width="10" height="140" as="geometry" />
        </mxCell>
        <mxCell id="-t0UyOi2Fv0MCj0DZwLF-293" value="" style="line;strokeWidth=2;direction=south;html=1;hachureGap=4;fontFamily=Architects Daughter;fontSource=https://fonts.googleapis.com/css?family=Architects+Daughter;strokeColor=#000000;" vertex="1" parent="1">
          <mxGeometry x="46" y="4459" width="10" height="61" as="geometry" />
        </mxCell>
        <mxCell id="-t0UyOi2Fv0MCj0DZwLF-298" value="" style="line;strokeWidth=2;html=1;perimeter=backbonePerimeter;points=[];outlineConnect=0;hachureGap=4;fontFamily=Architects Daughter;fontSource=https://fonts.googleapis.com/css?family=Architects+Daughter;strokeColor=#000000;" vertex="1" parent="1">
          <mxGeometry x="50" y="4142" width="330" height="10" as="geometry" />
        </mxCell>
        <mxCell id="-t0UyOi2Fv0MCj0DZwLF-303" value="" style="line;strokeWidth=2;html=1;perimeter=backbonePerimeter;points=[];outlineConnect=0;hachureGap=4;fontFamily=Architects Daughter;fontSource=https://fonts.googleapis.com/css?family=Architects+Daughter;strokeColor=#000000;" vertex="1" parent="1">
          <mxGeometry x="50" y="4357" width="330" height="10" as="geometry" />
        </mxCell>
        <mxCell id="-t0UyOi2Fv0MCj0DZwLF-304" value="" style="line;strokeWidth=2;html=1;perimeter=backbonePerimeter;points=[];outlineConnect=0;hachureGap=4;fontFamily=Architects Daughter;fontSource=https://fonts.googleapis.com/css?family=Architects+Daughter;strokeColor=#000000;" vertex="1" parent="1">
          <mxGeometry x="50" y="4584" width="330" height="10" as="geometry" />
        </mxCell>
        <mxCell id="-t0UyOi2Fv0MCj0DZwLF-307" value="" style="line;strokeWidth=2;html=1;perimeter=backbonePerimeter;points=[];outlineConnect=0;hachureGap=4;fontFamily=Architects Daughter;fontSource=https://fonts.googleapis.com/css?family=Architects+Daughter;strokeColor=#000000;" vertex="1" parent="1">
          <mxGeometry x="48" y="3925" width="332" height="10" as="geometry" />
        </mxCell>
        <mxCell id="-t0UyOi2Fv0MCj0DZwLF-353" value="" style="line;strokeWidth=2;direction=south;html=1;hachureGap=4;fontFamily=Architects Daughter;fontSource=https://fonts.googleapis.com/css?family=Architects+Daughter;strokeColor=#000000;" vertex="1" parent="1">
          <mxGeometry x="47" y="4688" width="10" height="72" as="geometry" />
        </mxCell>
        <mxCell id="-t0UyOi2Fv0MCj0DZwLF-359" value="" style="line;strokeWidth=2;direction=south;html=1;hachureGap=4;fontFamily=Architects Daughter;fontSource=https://fonts.googleapis.com/css?family=Architects+Daughter;strokeColor=#000000;" vertex="1" parent="1">
          <mxGeometry x="215" y="5076" width="10" height="34" as="geometry" />
        </mxCell>
      </root>
    </mxGraphModel>
  </diagram>
</mxfile>
